<?xml version="1.0" encoding="utf-8"?>
<!-- Generator: Adobe Illustrator 23.0.3, SVG Export Plug-In . SVG Version: 6.00 Build 0)  -->
<svg version="1.1" id="e87ddc62-7528-42a5-8b37-f74ed0351019"
	 xmlns="http://www.w3.org/2000/svg" xmlns:xlink="http://www.w3.org/1999/xlink" x="0px" y="0px" viewBox="0 0 1131 812.2"
	 style="enable-background:new 0 0 1131 812.2;" xml:space="preserve">
<style type="text/css">
	.st0{fill:#EBECF0;}
	.st1{clip-path:url(#SVGID_2_);}
	.st2{fill:none;}
	.st3{fill:#353535;}
	.st4{fill:#212121;}
	.st5{fill:#D35B5B;}
	.st6{fill:#00A2FF;}
</style>
<g>
	<path class="st0" d="M155.9,772.2c-22.9-26.4-42-55.5-56.9-86.2c-4.8-10-9.2-20.3-10.1-31.1c-1.7-20.1,8.8-39.2,16.5-58.2
		c22.5-55.4,22.2-115.7,28.4-174.4c6.2-58.7,20.9-120.2,66-163.1c33.4-31.8,80.7-50.3,111.7-84c24.3-26.5,39-62.5,73.2-77.7
		c19.4-8.6,42-8.8,62.9-14c34.1-8.4,63-29.9,97.4-37c24-5,49.1-2.6,73.6,0.4c101,12.5,200.2,36.1,294.7,70.3
		c15.1,5.5,30.7,11.5,41.7,22.4c12.3,12.1,17.4,28.7,22.1,44.6c38.9,133.2,72.3,269.2,71.1,406.9c-0.3,32-2.8,65.2-19.3,93.6
		c-16.5,28.4-50.3,50.9-85.7,47.2"/>
</g>
<title>software engineer</title>
<g>
	<g>
		<defs>
			<rect id="SVGID_1_" x="323.2" y="84.5" width="431.3" height="485.7"/>
		</defs>
		<clipPath id="SVGID_2_">
			<use xlink:href="#SVGID_1_"  style="overflow:visible;"/>
		</clipPath>
		<g class="st1">
			<g>
				<g>
					<path class="st0" d="M695.1,563.1c-8.2-28.1-19.4-55.3-33.4-81.2c-6-11.1-13-22-19.4-33.1c-2-16.5-1.2-32.9,3.9-49.1
						c10.4-7.5,19.1-17.7,24.3-27.1c8.3-15,12.1-31.6,12.6-48.4c2.8-7.5,4.9-15.1,6.2-22.9c-3.1-45.4-20.9-90.4-43.9-129.7
						c-0.7-4.5-3.5-11-6.8-12.9c-0.2-5.3-1.5-9.9-4.5-7.9c-19.4,13.2-36.9,37.1-45.5,61.3c-5.1-1.8-11.2-2.4-19.4-3.7
						c-14.8-2.3-29.8-3.6-44.9-4c-23-0.6-51.6-0.6-73.9,8.5c-1.7-5.2-3.7-10.3-6.1-15.2c-4.4-9-14.1-27.8-26.5-29.5
						c-2.4-5.2-8-4.7-10.6,1c-5.1,11.1-9.2,22.4-12.6,33.9c-0.3,0.9-0.6,1.7-0.9,2.6c-7.5,13.8-12.3,30.4-16.6,42.9
						c-7.7,22.7-13.9,47.2-14,71.2c0,21.5,5.9,41.1,20.7,57.7c6.7,7.5,14.5,14.1,21.7,21.1c5.8,5.6,10,11.1,13.8,16.8
						c-6.4,11.8-12,24.1-18.1,36.1c-13.6,26.9-27.5,53.7-40.5,80.8c-22.5,46.8-40.5,97.4-34,149.4c0.2,1.3,0.4,2.7,0.6,4
						c-10.7,1.9-21.8,2.5-31.2,8.5c-31.9,20.5-36.8,71.6-27.6,104.7c8.6,31,34.6,49.1,65,55.6c14.4,3.1,30.8,5.9,45.5,5.8
						c12.2,0,27.9,2.2,38.6-3.4c6.3-3.3,5.3-17.3,3.4-22.6c-10.4-28.7-36.5-37.5-64.4-41.2c-12.8-1.7-26.7-3.2-38.3-9.3
						c-6.4-3.4-12.4-8.2-16.7-14c-0.4-0.6-0.8-1.2-1.2-1.8c0.4-0.4,0.7-0.7,1.1-1c5.8-4.6,13-5.6,20.1-7
						c10.7-2.1,20.7-5.2,29.7-10.9c2.9,4.3,6.1,8.4,9.6,12.3c0.3,0.4,0.5,0.9,0.8,1.3c34.3,50.5,113.8,61.8,171.7,58
						c32.8-2.2,68.4-6.4,99.9-15.8c21.3-6.4,32.3-23.6,40.3-42c10.1-9.1,18.4-20.5,24.3-35.1C718.6,676.5,710.3,615,695.1,563.1z"/>
					<g>
						<path class="st2" d="M695.1,563.1c-8.2-28.1-19.4-55.3-33.4-81.2c-6-11.1-13-22-19.4-33.1c-2-16.5-1.2-32.9,3.9-49.1
							c10.4-7.5,19.1-17.7,24.3-27.1c8.3-15,12.1-31.6,12.6-48.4c2.8-7.5,4.9-15.1,6.2-22.9c-3.1-45.4-20.9-90.4-43.9-129.7
							c-0.7-4.5-3.5-11-6.8-12.9c-0.2-5.3-1.5-9.9-4.5-7.9c-19.4,13.2-36.9,37.1-45.5,61.3c-5.1-1.8-11.2-2.4-19.4-3.7
							c-14.8-2.3-29.8-3.6-44.9-4c-23-0.6-51.6-0.6-73.9,8.5c-1.7-5.2-3.7-10.3-6.1-15.2c-4.4-9-14.1-27.8-26.5-29.5
							c-2.4-5.2-8-4.7-10.6,1c-5.1,11.1-9.2,22.4-12.6,33.9c-0.3,0.9-0.6,1.7-0.9,2.6c-7.5,13.8-12.3,30.4-16.6,42.9
							c-7.7,22.7-13.9,47.2-14,71.2c0,21.5,5.9,41.1,20.7,57.7c6.7,7.5,14.5,14.1,21.7,21.1c5.8,5.6,10,11.1,13.8,16.8
							c-6.4,11.8-12,24.1-18.1,36.1c-13.6,26.9-27.5,53.7-40.5,80.8c-22.5,46.8-40.5,97.4-34,149.4c0.2,1.3,0.4,2.7,0.6,4
							c-10.7,1.9-21.8,2.5-31.2,8.5c-31.9,20.5-36.8,71.6-27.6,104.7c8.6,31,34.6,49.1,65,55.6c14.4,3.1,30.8,5.9,45.5,5.8
							c12.2,0,27.9,2.2,38.6-3.4c6.3-3.3,5.3-17.3,3.4-22.6c-10.4-28.7-36.5-37.5-64.4-41.2c-12.8-1.7-26.7-3.2-38.3-9.3
							c-6.4-3.4-12.4-8.2-16.7-14c-0.4-0.6-0.8-1.2-1.2-1.8c0.4-0.4,0.7-0.7,1.1-1c5.8-4.6,13-5.6,20.1-7
							c10.7-2.1,20.7-5.2,29.7-10.9c2.9,4.3,6.1,8.4,9.6,12.3c0.3,0.4,0.5,0.9,0.8,1.3c34.3,50.5,113.8,61.8,171.7,58
							c32.8-2.2,68.4-6.4,99.9-15.8c21.3-6.4,32.3-23.6,40.3-42c10.1-9.1,18.4-20.5,24.3-35.1C718.6,676.5,710.3,615,695.1,563.1z"
							/>
						<g>
							<path class="st3" d="M572.4,203.4l-5-0.8l-5.1-0.7c2.2,0.3,4.5,0.6,6.7,0.9c2.2,0.3,4.4,0.7,6.6,1c2.2,0.3,4.5,0.7,6.9,1.1
								l0.9,0.2l0.5,0.1c0.3,0.1,0.7,0.2,1,0.3c0.1,0,0.1,0,0.1-0.1l0.1-0.2l0.1-0.3l0.2-0.6l1.1-2.6c1.3-2.9,2.7-5.8,4.1-8.6
								c3-5.6,6.3-11,10-16.3c7.4-10.4,16.2-20,26.7-27.8c-10.2,7.3-19.1,16.5-26.8,26.8c-3.8,5.2-7.4,10.6-10.5,16.3
								c-1.6,2.9-3,5.8-4.4,8.7l-1,2.2l-0.2,0.3c-0.1,0.2-0.2,0.5-0.3,0.6c-0.2-0.1-0.5-0.2-0.7-0.3l-0.2-0.1c0,0,0,0,0,0l-0.3-0.1
								l-0.6-0.1l-2.5-0.5c-3.3-0.6-6.4-1-9.4-1.5c-6.3-1-12.7-1.9-19.1-2.6c-6.3-0.7-12.6-1.1-18.9-1.4c-3.1-0.1-6.2-0.2-9.3-0.3
								c-3-0.1-6.1-0.1-9.1-0.1c-12,0-23.9,0.5-35,2.2c-5.6,0.9-11,1.9-16.2,3.4c-1.3,0.3-2.6,0.8-3.8,1.2c-0.6,0.2-1.3,0.4-1.9,0.6
								l-0.9,0.3l-0.5,0.2c-0.1,0.1-0.1,0.1-0.2,0.1c-0.8,0.4-1.5,0.8-2.5,1.3c-0.2-0.4-0.5-0.8-0.7-1.2c0.1-0.3,0.1-0.7,0.1-1.2
								c0-0.1,0-0.2,0-0.3c0,0-0.1-0.2-0.1-0.4c-0.1-0.2-0.1-0.4-0.2-0.5c-0.2-0.7-0.5-1.6-0.8-2.4c-0.6-1.7-1.4-3.8-2.3-5.9
								c-0.9-2.1-1.9-4.4-3.1-6.8c-2.4-4.8-5.4-10.1-9.6-15.1c-2.1-2.5-4.5-5-7.5-7.1c-1.5-1.1-3.1-2-4.9-2.8
								c-0.5-0.2-0.9-0.4-1.3-0.5l-0.6-0.2c-0.1,0-0.1,0-0.1,0c-0.1,0-0.1,0-0.1-0.1c0,0,0-0.1,0-0.1l0,0c0,0,0,0-0.1-0.2l-0.8-0.8
								c-1.3-1.2-3.1-2.4-5.2-3c-2.1-0.6-4.3-0.5-6.2,0c-1.9,0.5-3.4,1.4-4.7,2.3c-2.5,1.9-3.8,4.1-4.7,6c-0.6,1.3-1.1,2.4-1.6,3.5
								c-1.9,4.3-2.9,7.1-3,7.4c-2.7,7.2-5,14.4-7.1,21.8c-0.3,0.9-0.4,1.7-0.7,2.5c-0.3,0.7-0.7,2-0.6,1.8l-1.2,2.5l-1.3,2.7
								c-1.6,3.6-3.1,7.3-4.5,10.9c1.9-5,4-10.1,6.5-15l0.5-0.9l0.1-0.2c0,0,0,0,0,0c0,0,0-0.1,0-0.1c0,0,0,0,0,0l0-0.1l0.1-0.4
								l0.3-0.9c0.2-0.6,0.3-1.2,0.5-1.7l0.5-1.8c0.7-2.5,1.5-5.1,2.3-7.6c-0.8,2.5-1.6,5.1-2.3,7.6l-0.5,1.8
								c-0.2,0.6-0.3,1.2-0.5,1.7l-0.3,0.9l-0.1,0.4l0,0.1c0,0,0,0,0,0c0,0,0,0.1,0,0.1c0,0,0,0,0,0l-0.1,0.2l-0.5,0.9
								c-2.5,4.9-4.6,9.9-6.5,15c-2.2,5.8-4,11.6-5.9,17.4c-1.8,5.8-3.7,11.6-5.5,17.5c-3.6,11.9-6.8,24.1-8.9,36.7
								c-1,6.3-1.8,12.7-2.2,19.2c-0.1,1.6-0.2,3.3-0.2,4.9c0,1.6-0.1,3.3-0.1,4.9c0,3.3,0.1,6.6,0.4,9.9c1.1,13.3,5,26.8,12.1,38.5
								c0.9,1.5,1.8,2.9,2.8,4.3c1,1.4,2,2.8,3.1,4.2c2.1,2.7,4.4,5.3,6.7,7.7c4.7,4.9,9.5,9.3,14.2,13.8c2.3,2.2,4.7,4.4,6.8,6.7
								c2.1,2.2,4.1,4.6,6,7l1.4,1.9l0.6,0.8l0.3,0.4l0.4,0.6c0.1,0.1,0.2,0.2,0.2,0.3l-0.2,0.3l-0.4,0.7l-0.8,1.5L409,423
								c-3,5.9-6,11.9-8.9,17.8c-1.5,3-3,5.9-4.5,8.8c-1.5,3-3.1,5.9-4.6,8.9c-6.1,11.9-12.3,23.8-18.5,35.8
								c-3.4,6.7-7.5,14.8-12.1,24c-4.6,9.2-9.7,19.6-14.7,31c-5,11.4-10,23.7-14.3,36.8c-4.3,13.1-7.9,26.9-10.3,41.1
								c-2.3,14.2-3.3,28.6-2.6,42.7l0.1,2.6c0.1,0.9,0.2,1.7,0.2,2.6c0.1,1.4,0.2,2.8,0.4,4.2c0,0.1,0,0.3,0,0.5l0,0.1
								c0,0-0.1,0-0.1,0l-0.2,0l-0.2,0l-0.1,0l-0.8,0.1c-1.6,0.2-3.3,0.5-4.9,0.8c-3.3,0.6-6.7,1.3-10.1,2.4
								c-3.4,1.1-6.7,2.6-9.8,4.4c-0.8,0.5-1.5,0.9-2.2,1.4c-0.7,0.5-1.4,1-2.1,1.4c-1.3,1-2.6,2-3.8,3.1c-4.9,4.3-8.9,9-12.1,13.8
								c-6.4,9.6-9.8,19.2-12,27.1c-2.5,9.2-3.9,18.6-4.2,28.1c0.4-7.9,1-11.8,1.6-15.7c0.3-2,0.7-3.9,1.2-6.3c0.3-1.2,0.6-2.5,1-4
								c0.4-1.5,0.8-3.2,1.5-5.1c-2.7,9.7-4,19.3-4.4,28.7c-0.3,9.4,0.3,18.7,1.8,27.6c0.8,4.5,1.8,8.9,3,13.3
								c0.7,2.2,1.4,4.4,2.2,6.5c0.4,1.1,0.9,2.1,1.3,3.2c0.4,1,0.9,2.1,1.4,3.1c4,8.2,9.5,15.5,15.9,21.6c-1-1.2-1.9-2.1-2.7-3
								c-0.7-1-1.4-1.9-2.3-3.1c-0.4-0.6-0.9-1.2-1.4-1.9c-0.5-0.7-1-1.6-1.7-2.5c-1.3-1.8-2.7-4.3-4.5-7.5
								c2.9,5.2,6.4,10.1,10.3,14.6c0.8,0.7,1.6,1.4,2.4,2.2c0.9,0.8,1.7,1.7,2.8,2.5c1,0.8,2.1,1.7,3.2,2.6
								c1.1,0.9,2.3,1.7,3.5,2.6c4.9,3.5,10.7,6.8,16.8,9.5c6.1,2.7,12.5,4.7,18.4,6.2c1.5,0.3,2.9,0.7,4.3,1c1.4,0.3,2.7,0.5,4,0.8
								c2.6,0.5,4.9,0.9,7,1.2c-3.6-0.2,9.3,2.5,21,3.7c-1.5-0.3-3.1-0.5-4.6-0.8c4.7,0.6,9.5,1,14.4,1.2c2.4,0.1,5,0.1,7.3,0.1
								c2.3,0,4.7,0.1,7.2,0.2c4.9,0.2,9.9,0.3,15.1-0.1c2.6-0.2,5.2-0.5,7.9-1.2c0.7-0.1,1.3-0.3,2-0.5c0.7-0.2,1.3-0.4,2-0.6
								c0.7-0.3,1.3-0.5,2-0.8l2.1-1c1.1-0.6,2.2-1.4,3-2.3c0.8-0.9,1.6-2.1,2.1-3.1c1-2.1,1.5-4.1,1.8-6c0.6-3.9,0.4-7.5-0.1-11.1
								c-0.3-1.8-0.7-3.7-1.4-5.6c-0.7-1.6-1.3-3.2-2-4.8c-0.7-1.6-1.6-3.1-2.4-4.6c-0.4-0.8-0.9-1.5-1.3-2.2
								c-0.5-0.7-0.9-1.4-1.4-2.2c-3.9-5.6-8.8-10.4-14.1-14.2c-5.3-3.8-10.9-6.5-16.4-8.6c-1.3-0.5-2.6-0.9-3.7-1.4
								c-1.2-0.4-2.3-0.7-3.2-1.1c-2-0.7-3.6-1.2-4.8-1.6c-6.3-1.5-12.6-2.5-18.9-3.3c-6.2-0.8-12.3-1.4-18.2-2.6
								c1.4,0-5.9-1.5-11-3.5c-2.6-0.9-4.6-1.9-5.1-2.2c-0.5-0.3,0.5,0.2,4.4,1.6c-2.2-0.8-4.4-1.7-6.5-2.7c-2.1-1.1-4.1-2.3-6-3.6
								c-0.9-0.7-1.9-1.4-2.8-2.2c-0.2-0.2-0.4-0.4-0.7-0.6l-0.5-0.5c-0.2-0.2-0.4-0.3-0.6-0.5c-0.7-0.7-1.5-1.5-2.1-2.4l-0.1-0.1
								c0,0,0.1-0.1,0.1-0.1l0.2-0.2c0.2-0.2,0.4-0.3,0.5-0.4c0.4-0.3,0.8-0.5,1.2-0.7c0.4-0.2,0.8-0.4,1.2-0.6
								c0.2-0.1,0.4-0.2,0.7-0.2c0.4-0.1,0.9-0.3,1.4-0.4c3.8-1.1,8.1-1.7,12.5-2.7c4.4-1,8.7-2.2,13-3.7c2.1-0.8,4.2-1.6,6.2-2.6
								l1.5-0.7l1.3-0.7c0.4-0.2,0.9-0.5,1.3-0.8c0.4-0.2,0.9-0.5,1.3-0.8c0.4,0.5,0.8,1.2,1.2,1.7l0.6,0.9l1.3,1.7
								c0.9,1.2,1.9,2.4,2.9,3.5l1.3,1.5c0.2,0.2,0.6,1.1,1.1,1.7c3.5,5.1,7.6,9.8,11.9,14.2c4.4,4.4,9.2,8.3,14.2,12
								c1.3,0.9,2.5,1.8,3.8,2.7l3.9,2.5c2.7,1.6,5.3,3.2,8.1,4.6c2.7,1.5,5.5,2.8,8.3,4.1c2.8,1.2,5.7,2.5,8.6,3.6
								c5.8,2.3,11.7,4.2,17.6,5.9c6,1.7,12,3.2,18.1,4.3c6.1,1.2,12.2,2.2,18.4,3c6.2,0.8,12.3,1.4,18.5,1.8
								c6.2,0.4,12.4,0.6,18.6,0.6c6.2,0,12.4-0.1,18.6-0.4c6.2-0.3,12.3-0.8,18.5-1.4c24.5-2.2,49-5.6,72.8-11.6l-2.4,0.3
								c2.1-0.5,4.2-1.1,6.3-1.6c2.1-0.6,4.1-1.1,6.1-1.7c2-0.6,4-1.2,6.1-1.9l3.1-1.1l3-1.3c3.9-1.9,7.6-4.2,10.9-7
								c3.3-2.7,6.3-5.9,9-9.4c5.4-6.9,9.6-14.9,13.3-23.3c0.2-0.5,0.3-1,0.8-1.3l1.2-1.1c0.8-0.8,1.7-1.7,2.5-2.5
								c1.7-1.7,3.3-3.6,4.9-5.4c3.2-3.8,6.2-8,8.9-12.5c1.8-3.3,3.6-6.9,5.1-10.7c0.4-0.9,0.8-1.9,1.1-2.9c0.3-1,0.7-2,1-2.9
								c0.7-2,1.4-3.9,2-5.9c0.4-1,0.6-2,0.9-3l0.8-3c0.3-1,0.5-2,0.8-3c0.3-1,0.6-2,0.8-3c0.4-2,0.8-4.1,1.2-6.1c0.2-1,0.4-2,0.6-3
								c0.1-1,0.3-2,0.4-3c0.6-3.9,1.2-7.7,1.4-11.3c0.3-3.6,0.6-6.9,0.6-10c0-3.1,0.2-5.8,0.1-8.2c-0.1-2.4-0.2-4.3-0.4-5.8
								c0.1-8.6-0.4-15.9-1-22.5c-0.1-0.8-0.1-1.6-0.2-2.4c-0.1-0.8-0.2-1.6-0.3-2.4c-0.2-1.6-0.4-3.1-0.6-4.6c-0.3-3-0.8-6-1.3-8.9
								c-1.9-11.8-4.3-23.4-8.5-39.6c0.4,2.1,0,1.2-0.7-1.1c-0.3-1.2-0.8-2.6-1.3-4.3c-0.5-1.6-1-3.4-1.6-5.1c-1-3.4-2-6.6-2.5-8
								c-0.5-1.3-0.4-0.8,0.6,3.2c2.6,10.8,4,16.5,5.3,21.8c0.6,2.7,1.2,5.2,1.8,8.2c0.6,3.1,1.2,6.6,1.9,11.3l0.1-0.6
								c3.7,21.6,5.6,43.6,4.2,65.3l-0.3,4.1c-0.1,1.4-0.2,2.7-0.4,4.1l-1,8.1c-0.9,5.3-1.7,10.7-3.1,15.9l-0.9,3.9
								c-0.3,1.3-0.8,2.6-1.1,3.9l-1.2,3.9c-0.4,1.3-0.7,2.6-1.3,3.8l-2.8,7.5c-1,2.5-2.1,4.9-3.3,7.2c-4.7,9.4-11.1,17.9-18.8,25
								l-1.3,1.2c-0.4,0.4-1,0.8-1.2,1.4l-1.2,2.7c-0.5,1.2-1.2,2.4-1.7,3.6c-0.6,1.2-1.2,2.4-1.8,3.6c-0.6,1.2-1.3,2.3-1.9,3.5
								c-2.7,4.5-5.7,8.7-9.1,12.4c-3.4,3.7-7.3,6.8-11.6,9.2c-1.1,0.5-2.2,1.2-3.3,1.7l-1.7,0.7c-0.6,0.2-1.1,0.5-1.7,0.7l-1.8,0.6
								l-0.9,0.3l-1,0.3l-4,1.1c-10.6,2.9-21.4,5.2-32.4,7.1c-14.6,2.7-29.6,4.6-45,6c-7.7,0.7-15.5,1.3-23.1,1.6
								c-7.7,0.3-15.4,0.4-23.2,0.1c-15.5-0.5-31.1-2.1-46.2-5.1c-15.2-3-30-7.4-43.7-13.6c-11.6-5.3-22.8-12.1-32.2-20.7
								c-4.7-4.3-9-9-12.7-14.1l-1.4-1.9c-0.1-0.2-0.2-0.3-0.3-0.5l-0.3-0.5l-0.2-0.4c-0.1-0.2-0.2-0.3-0.3-0.4l-0.7-0.8
								c-1.1-1.2-2.1-2.4-3.1-3.6l-1.5-1.9l-1-1.4l-1.3-1.7c-1.7-2.4-3.3-4.7-5-7.1c-1.8,1.1-3.6,2.2-5.4,3.3
								c-0.9,0.5-1.8,1-2.7,1.6c-0.5,0.3-0.9,0.5-1.4,0.7l-1,0.5c-2,1-4,1.8-6,2.6c-4.1,1.6-8.3,2.8-12.6,3.7c-4.2,1-8.8,1.6-13.6,3
								c-0.6,0.2-1.2,0.4-1.8,0.6c-0.8,0.3-1.8,0.6-2.6,1c-1.7,0.7-3.4,1.5-4.9,2.5c-1.5,0.9-2.8,2-4,3.1c-0.6,0.6-1.2,1.1-1.8,1.6
								l-0.9,0.9c-0.2,0.1-0.3,0.3-0.5,0.4l-0.3,0.4c1.3,2,2.5,3.8,3.8,5.6c1.3,1.8,2.8,3.6,4.4,5.2l1.3,1.2
								c0.2,0.2,0.4,0.4,0.6,0.6l0.4,0.4c0.6,0.5,1.2,1,1.7,1.5c1.2,1,2.4,1.9,3.6,2.7c4.9,3.4,10.3,5.9,15.6,7.7
								c5.3,1.7,10.5,2.8,15.5,3.6c5,0.8,9.9,1.4,14.5,2c6.7,0.8,12.4,1.9,17.6,3.3c5.2,1.4,10.1,3.2,15,5.5
								c9.1,4,17.8,10.2,23.4,19.4c0.8,1.1,1.3,2.3,2,3.5l1,1.8l0.8,1.9l0.8,1.9l0.4,0.9c0.1,0.2,0.2,0.5,0.2,0.7
								c0.3,1.1,0.5,2.4,0.7,3.7c0.3,2.6,0.3,5.3-0.1,7.7c-0.2,1.2-0.5,2.2-0.9,2.9c-0.2,0.5-0.6,0.8-1,1.1
								c-0.2,0.1-0.7,0.3-1.1,0.5c-0.4,0.2-0.9,0.3-1.3,0.5c-0.8,0.4-1.8,0.6-2.7,0.8c-1.9,0.4-3.9,0.8-5.9,1
								c-4.1,0.4-8.5,0.4-13,0.2c-2.3-0.1-4.6-0.1-6.9-0.2c-2.3-0.1-4.9-0.1-7-0.1c-4.4-0.1-8.9-0.4-13.3-0.8
								c-8.9-0.9-17.9-2.5-26.7-4.3c-2.2-0.4-4.3-1-6.4-1.5c-1.1-0.2-2.1-0.5-3.1-0.8c-1-0.3-2.1-0.6-3.1-0.9c-2-0.7-4.1-1.4-6-2.1
								c-1-0.4-2-0.8-2.9-1.2l-1.5-0.6l-1.4-0.7c0.9,0.5,1.9,0.9,2.5,1.2c-13.8-6-24.2-14.6-31.5-25.1c-3.6-5.3-6.4-11-8.5-17.3
								c-1-3.1-1.9-6.4-2.6-9.8c-0.7-3.4-1.2-7-1.7-10.7c-0.1,0.1-0.3-1-0.4-2.4c-0.1-1.4-0.3-3.1-0.4-4.2c0.1-0.7-0.1-3.9,0-9
								c0.1-2.6,0.2-5.7,0.5-9.1c0.3-3.5,0.8-7.3,1.6-11.4c1.6-8.2,4.3-17.5,9.3-26.4c2.5-4.4,5.5-8.6,9.2-12.4
								c3.6-3.7,7.9-7.1,12.4-9.2c4.6-2.2,9.9-3.3,15.5-4.3c1.8-0.3,3.6-0.6,5.4-0.9c2.2-0.4,4.4-0.7,6.6-1.1l1.6-0.3l0.4-0.1
								c0-0.1,0-0.3,0-0.4l-0.1-0.8c-0.1-1.1-0.3-2.2-0.4-3.2c-0.2-2.1-0.6-4.4-0.8-6.5c-0.1-1.4-0.3-2.8-0.4-4.2
								c-0.1-1.3-0.3-2.6-0.3-3.9c-0.1-2.6-0.3-5.2-0.4-7.7c0-2.5,0-5,0-7.3c0-2.4,0.1-4.7,0.2-6.9c0.9-17.9,4.1-30.6,4.6-33.2
								c0.7-3.1,1.4-6.3,2.2-9.6c4.2-15.6,9.9-31,16.4-46c6.5-15,13.9-29.5,21.2-43.8c7.3-14.3,14.6-28.3,21.7-41.9
								c3.5-6.8,7-13.5,10.4-20c3.4-6.6,6.5-13.2,9.6-19.5c1.3-2.8,2.6-5.6,3.9-8.5l1-2.1l0.5-1.1l0.3-0.5l0.4-0.8
								c0.6-1.1,1.1-2.3,1.7-3.4l0.9-1.7l0.4-0.9l0.2-0.4c0,0,0-0.1,0-0.1l-0.1-0.1l-0.1-0.2c-0.7-1.1-1.5-2.1-2.2-3.2
								c-0.7-1.1-1.5-2.1-2.2-3l-0.5-0.6l-0.4-0.5l-0.7-0.9c-0.5-0.6-1-1.2-1.5-1.8c-2-2.3-4-4.5-5.9-6.4c-3.5-3.9-5.8-5.8-8.2-8
								c-2.4-2.1-5.1-4.4-9.3-8.5c-2.5-2.8-4.9-5.4-6.9-7.9c-2-2.5-3.7-4.9-5.2-7.1c-2.9-4.5-4.9-8.3-6.1-10.9c-1.2-2.7-1.9-4.1-2-4
								c-0.1,0.1,0.1,0.5,0.3,1.3c0.3,0.8,0.7,2.1,1.5,3.8c-1.3-2.6-2.4-5.4-3.5-8.1c-0.9-2.8-1.8-5.6-2.4-8.5
								c-1.3-5.8-2-11.6-2.1-17.5c-0.3-11.7,1.1-23.3,3.1-34c1.8-10,4.2-19.8,7.1-29.6c1.2-4.2,2.3-7.4,3.4-10.1
								c1-2.7,1.9-4.9,2.8-7c3.4-10.8,4.8-14.4,6.3-18.1c0.8-1.9,1.6-3.7,2.8-6.5c0.6-1.4,1.3-2.9,2.2-4.7c0.5-0.9,1-1.9,1.5-3
								c0.3-0.6,0.6-1.2,1-1.8c0.1-0.3,0.3-0.5,0.4-0.8c0.1-0.3,0.2-0.5,0.3-0.8c0.1-0.4,0.3-0.7,0.4-1.1c0.1-0.2,0.3-0.6,0.4-1
								c0.1-0.4,0.3-1,0.5-1.6c0.4-1.1,0.8-2.6,1.3-4.3c1-3.3,2.4-7.6,4.1-12.2c1.6-4.6,3.6-9.6,5.6-14.4l0.4-0.9l0.1-0.2l0.1-0.1
								l0.1-0.3c0.1-0.2,0.2-0.3,0.3-0.5c0.1-0.2,0.2-0.3,0.3-0.4c0.4-0.5,0.7-0.6,0.7-0.7c0,0.1,0-0.3,0-0.2c0,0,0,0,0,0
								c0,0,0,0.1,0,0.1c0,0,0,0,0,0c0,0,0.1,0,0.1,0.1c0.1,0.1,0.2,0.2,0.3,0.4c0.5,0.8,1,1.7,1.4,2.5l0.2,0.1l0.3,0l0.5,0.1
								c0.4,0.1,0.7,0.1,1.1,0.2c0.3,0.1,0.7,0.1,1,0.2l0.5,0.1l0.2,0.1l0.1,0c0.7,0.2,1.2,0.4,1.8,0.7c1.1,0.5,2.1,1.2,3,1.8
								c1.8,1.3,3,2.6,3.5,3.2c-0.8-0.8-1.7-1.6-2.5-2.3c2.9,2.5,5.3,5.6,7.4,8.7c2.1,3.2,3.9,6.4,5.5,9.6c0.8,1.6,1.6,3.3,2.3,4.9
								c0.7,1.6,1.4,3.2,2.1,4.8l0.9,2.4l0.6,1.7c0.3,0.7,0.5,1.4,0.8,2.2c1,2.9,1.9,6,2.8,9c3.2-1.1,6.5-2.3,9.8-3.5
								c0.8-0.2,1.6-0.5,2.5-0.8c0.5-0.1,1-0.3,1.4-0.4c1-0.2,2-0.5,3-0.7c4-1,8.2-1.8,12.7-2.4c17.6-2.5,36.4-2.2,55.2-1.4
								c9.3,0.4,18.7,1.2,28,2.4c2.3,0.3,4.6,0.6,6.9,1c2.4,0.4,4.7,0.7,7.1,1.1c2.3,0.3,4.6,0.7,6.8,1.1l0.9,0.2l1.5,0.3
								c0.5,0.1,1,0.3,1.5,0.4c0.5,0.1,1,0.3,1.5,0.5l6.1,2c0.2-0.3,0.3-0.7,0.5-1.1l0.4-1.1l0.9-2.3l1.7-4.6
								c0.3-0.8,0.6-1.5,0.9-2.3l0.5-1.2c0.3-0.8,0.7-1.6,1.1-2.4c0.8-1.6,1.5-3.2,2.3-4.8l1.2-2.4c0.4-0.8,0.9-1.5,1.3-2.3
								c3.5-6.2,7.4-12,11.7-17.5c4.3-5.5,9-10.5,14.1-14.9l1.9-1.7l1.9-1.6c1.3-1.1,2.6-2,4-3l0.5-0.4l0.2-0.2l0.1-0.1l0.1,0
								c-0.4-0.6,0.9,1.2-0.8-1.3l0,0l-0.1-0.1c-0.2-0.2-0.3-0.4-0.4-0.7c-0.1-0.2-0.2-0.6-0.3-0.7c-0.2-0.3-0.2-0.8-0.2-0.8
								c0,0,0-0.1,0-0.1l0-0.1l0,0c0,0,0,0,0,0c0,0-0.1,0.2-0.1,0.3c0,0-0.1,0.1-0.1,0.1c-0.1,0.1-0.1,0.2-0.2,0.2
								c-0.1,0.2-0.3,0.3-0.4,0.4c-0.2,0.2-0.4,0.4-0.7,0.5c-0.4,0.2-1.1,0.7-1.7,1l-0.1,0.1c0,0,0,0,0,0l0,0l0,0c0,0,0,0,0,0.1
								c0,0,0,0.1,0.1,0.2c0,0.1,0.1,0.2,0.1,0.3c0,0.1,0.1,0.2,0.1,0.4c0.1,0.3,0.1,0.6,0.2,0.9c0,0.1,0.1,0.6,0.1,0.9
								c0,0.4,0.1,0.7,0.1,1.1c0.3,0.5,0.5,1.1,0.8,1.6c0.2,0.5,0.4,1,0.7,1.4c0.6,0.8,1.2,1.8,1.9,2.8l-0.1,0l0,0l0,0l0,0l0,0
								l0.1,0.1l0.1,0.1c0.1,0.1,0.2,0.2,0.2,0.3c0.2,0.2,0.3,0.5,0.5,0.7c0.3,0.5,0.6,1.1,0.9,1.7c0.6,1.2,1,2.6,1.4,3.9
								c0,0.2,0.1,0.3,0.1,0.5l0.1,0.2c0,0.2,0.1,0.4,0.1,0.6l0.2,1.1l0.1,0.3c0,0.1,0.1,0.2,0.1,0.2l0.3,0.5c0.5,0.9,1,1.8,1.6,2.7
								c0.8,1.4,1.6,2.8,2.4,4.3c0.2,0.1-0.1-0.7-0.8-1.9c-0.3-0.6-0.7-1.3-1.2-2.1c-0.5-1-1.1-2-1.7-3c-0.5-0.7-0.5-1.6-0.7-2.4
								l-0.1-0.7c0-0.2-0.1-0.4-0.1-0.6c-0.2-0.7-0.4-1.4-0.6-2.1c-0.4-1.2-0.7-2.1-0.6-2.3c0.4,0.9,0.9,1.9,1.2,2.9
								c0.2,0.5,0.3,1,0.5,1.5c0.1,0.2,0.1,0.5,0.2,0.7l0,0.2l0,0.2l0,0.2l0.2,0.8c0.1,0.3,0.1,0.5,0.2,0.8l0.4,0.7l0.7,1.3l0.9,1.6
								l1.9,3.3c2.4,4.4,4.8,8.9,7,13.4c4.5,9,8.7,18.2,12.4,27.6c7.5,18.7,13.1,38.1,16.5,57.9c0.2,1.8,0.5,3.7,0.8,5.6
								c0.2,1.9,0.4,3.8,0.5,5.5c0.4,3.5,0.4,6.5,0.5,8.2c0.1,0.8,0.1,1.5,0.2,2.2c0,0.4,0,0.3,0,0.4c-0.2,0.9-0.3,1.7-0.4,2.3
								c-0.3,1.4-0.4,2.2-0.5,2.9c-0.2,1.4-0.3,2.4-1.6,6.8l-0.9,1c-0.4,1.6-0.9,3.1-1.3,4.5c-0.1,0.3-0.2,0.7-0.3,1
								c-0.1,0.4-0.3,0.7-0.4,1.1c-0.2,0.6-0.4,1.2-0.7,1.7l-0.2,0.4l0,0.5c0,0.3,0,0.7-0.1,1c0,0.8-0.1,1.6-0.1,2.4
								c0,0.6-0.1,1.2-0.2,1.9c-0.1,1.2-0.3,2.4-0.4,3.6c-0.7,4.7-1.6,9.2-2.9,15.2c0,0.7-1,5.1-2.6,9.1c-0.2,0-0.5,0.8-1,1.9
								c-0.5,1.1-1.1,2.7-1.8,4.1c-0.6,1.5-1.4,2.9-1.9,3.9c-0.6,1-0.9,1.6-1,1.4l0,0.1c-1.2,2.3-2.1,3.8-3.9,6.3
								c-0.6,1-2.7,4.2-6,8.1c-1.6,2-3.6,4.1-5.8,6.2c-1.1,1.1-2.2,2.1-3.5,3.2l-0.9,0.8l-0.3,0.2l-0.5,0.4l-1,0.8l-1.9,1.5
								c-0.2,0.1-0.2,0.3-0.3,0.5l-0.2,0.6l-0.3,1.1l-0.6,2.2l-0.3,1.1l-0.2,0.7c-0.2,0.9-0.4,1.8-0.6,2.7c-0.4,1.8-0.7,3.6-1,5.3
								c-0.6,3.5-1,6.8-1.2,9.7c-0.5,5.9-0.3,10.3-0.3,11.7l-0.1,2.7c0,4,0.4,6.8,0.6,8c0.2,1.2,0.3,0.9,0.2-1.4
								c0.1,1.6,0.2,3.2,0.4,4.8c0.1,0.8,0.1,1.6,0.2,2.4l0.2,1.9l0.1,1c0.1,0.3,0.3,0.6,0.5,0.9c-0.2-0.3-0.3-0.5-0.5-0.8l-0.1-0.9
								c0,0.3,0.1,0.7,0.1,1l0.5,0.8l1,1.6l1.2,2l2.4,4c0.8,1.5,1.6,3.3,0,1.2c2.9,4.4,6,9.4,8.6,13.9c-3.5-6.3-7.6-13.4-11.6-20.7
								l-1-1.9l-0.6-1.1c-0.1-0.4-0.1-0.8-0.1-1.3l-0.2-2.2c0-0.5-0.1-1.1-0.1-1.6c-0.1-2.1-0.2-4.3-0.3-6.4
								c-0.1-4.2,0.1-8.4,0.4-12.3c-0.1,3.3-0.1,7.8,0.1,12.4c0.1,2.3,0.2,4.6,0.4,6.8c0.1,1.4,0.3,2.7,0.4,3.9c0,0.4,0.3,0.7,0.4,1
								c0.2,0.3,0.4,0.6,0.6,0.9c0.3,0.5,0.6,0.9,0.8,1.4c3.8,7.3,12.4,21.6,18.1,32.9c1.4,2.5,2.9,3.9,5.5,9.7
								c1,3,3.2,6.5,5.2,11.4c-2.8-5.4-5.3-10.8-8.1-16.3c0,0.6,1.7,4,3.5,7.8c1.8,3.8,3.8,8.1,4.8,10.3c0.5,1,2,4.2,3.7,8.1
								c1.7,3.9,3.5,8.4,5,11.8c-1.7-2.8,1.9,5.7,3.2,10c1.7,4.8,2.9,7.7,2.4,5.7c0.5,0.7-1-4.1-2.5-8.2c-1.4-4.1-2.7-7.6-1.2-4.4
								c0.4,1.8,4,11.1,5.7,16.1c0.3,0-1-3.5,0.4-0.3c1.8,5.6,4.1,11.6,4.7,14.9c-0.4-1-1-3.4-1.6-5.1c1.1,3.7-2.4-6.2-6.3-15.6
								c-3.8-9.4-8.1-18.4-6.1-13.8c-0.3-1.3,4.2,8.7,8,18.7c3.9,9.9,7.1,19.8,6.4,17.4c-1.2-4.6,1.5,3.1,0.2-1.6
								c-0.6-1.7-1.3-3.4-1.9-5.1c-1.9-6.4-2.3-9.2-1.3-7c1.7,5.3-1.2-2.1-4.4-9.6c-3.2-7.5-6.7-15.1-4.8-10.7
								c-0.4-1.2-0.9-2.4-1.3-3.7c0.9,1.8,2.3,5.3,3.6,8.7c1.3,3.5,2.6,7,3.1,9c0.3-0.1,2.2,5,3.7,9.3l0.4,1.5
								c1.6,4.4,3.3,10.7,2.9,7.7c-4-13.1-2-9,0.2-4.9c1.1,2.1,2.1,4.2,2.5,4.2c0.3,0,0-2.1-2-8.5c1.4,5.5,0.9,4.6-0.3,1
								c-1.2-3.6-3.4-10-5.4-15.5c-0.2-1.1-1.6-6.2-4.6-14.1c-2.8-6.8-1.9-3.9-2.6-5.1c-1.4-3.8-4.5-11-3.7-10.2
								c-2.7-5-3.6-8.4-6.7-14.5c-2.9-5.3,0,0.4-2.1-3.3c-2.1-4-4.5-8.9-7.1-13.5c-2.5-4.6-5-8.9-6.9-12c-1.2-2.6-5.1-10.2-1.4-5.1
								c7,11.9-3.4-4.1,4.1,8.2c-1.3-2.8,0.4-0.2,2.6,3.5c2.2,3.7,4.8,8.4,5.6,9.4c-1.8-4.2-6.5-12.3-10.6-18.9l0.7,1.4
								c-1.8-2.9-4.5-7.3-7.2-11.7c-0.7-1.1-1.3-2.2-2-3.3c-0.3-0.5-0.6-1-0.9-1.5c-0.1-0.6-0.1-1.1-0.2-1.7
								c-0.2-2.4-0.3-4.6-0.3-6.5c0.4,1.7,0.3-1.5,0.8,3.5c-0.3-3.1-0.4-6.2-0.4-9.3c-0.1-1.2-0.2-2.4-0.2,0.3
								c-0.3-4.4,0-8.8,0.5-12.1c0.1-0.2,0.3-3.5,0.9-8.1c0.3-2.3,0.8-5,1.4-7.8c0.3-1.4,0.7-2.9,1-4.3c0.2-0.7,0.3-1.3,0.5-2
								c0.1-0.2,0-0.4,0.2-0.5l0.4-0.3l0.8-0.6c0.5-0.4,1.1-0.9,1.7-1.4c0.6-0.5,1.1-1,1.7-1.5c1.1-1,2.2-2,3.2-3
								c2-2,3.8-3.9,5.2-5.6c2.9-3.4,4.5-5.7,4.3-5.3c2.1-2.7,3.3-4.4,4.5-6.1c1.2-1.7,2.2-3.5,3.6-6.6c0-0.1-0.4,0.8-1.2,2.3
								c-0.8,1.5-2,3.7-3.6,6.2c-3.2,5-8.2,11.2-13.8,16.4c-1.4,1.3-2.8,2.6-4.3,3.7c-0.3,0.3-0.7,0.6-1,0.8
								c-0.3,0.2-0.6,0.5-0.9,0.7l-0.5,0.4l-0.1,0.1l0,0.1l-0.1,0.3c-0.1,0.4-0.2,0.7-0.3,1.1c-0.1,0.4-0.2,0.7-0.3,1.1
								c-0.1,0.4-0.2,0.8-0.3,1.2c-0.2,0.8-0.4,1.5-0.5,2.2c-0.3,1.4-0.6,2.8-0.8,4c-0.9,4.7-1,7.1-0.8,4.9c0.2-0.7,0.4-2.4,0.9-4.8
								c0.2-1.2,0.5-2.6,0.9-4.2c0.4-1.5,0.8-3.3,1.2-4.8l0.2-0.6c0.1-0.2,0.1-0.4,0.3-0.5c0.3-0.3,0.7-0.5,1-0.8l0.5-0.4l0.6-0.5
								c0.4-0.3,0.8-0.7,1.2-1c1.6-1.4,3.3-2.9,4.9-4.5c3.3-3.2,6.4-6.8,9.3-10.7c1.4-1.9,2.8-3.9,4-5.9c1.2-2,2.3-4.1,3.3-6.1
								c2-4,3.6-8,4.8-11.4c2.4-7,3.5-12.1,3.8-13.1c1.1-4.9,1.8-11,1.3-9.8c1.1-8.4,0.3,2.6,1.2-3.4c0-0.1-0.2,0.5,0-1.4
								c0.3-1.9,0.5-3.9,0.7-5.8c0-0.3,0-0.7,0-1.1c0.1-0.4,0.2-0.7,0.4-1.1c0.3-0.8,0.6-1.7,0.8-2.5c0.6-1.7,1.1-3.6,1.7-5.4
								c1.1-3.8,2-7.8,2.8-11.8l0.3-1.6l0.1-0.4c0-0.1,0-0.3,0-0.4l-0.1-0.8c-0.1-1-0.2-2.1-0.3-3.1c-0.2-2-0.3-4.1-0.6-6
								c-0.3-2-0.6-3.9-0.8-5.8c-0.3-1.9-0.7-3.6-1-5.3c0.5,2,1.1,4,1.6,6.8c0.6,2.7,1.2,6,1.7,10.5l0,1.6c0,0.2,0.1,0.4,0.1,0.7
								c0,0.3,0.1,0.8,0.1,1.2c0,0.3,0.1,0.5,0.1,0.8c0,0.3-0.1,0.6-0.1,0.9c-0.1,0.5-0.2,1-0.2,1.5c-0.3,2-0.6,3.7-0.4,3.7
								c0.3-1,0.5-2.1,0.7-3.1c0.1-0.5,0.2-1,0.3-1.5l0.2-0.9c0-0.3,0.2-0.6,0.1-1c-0.2-2.1-0.4-4.1-0.5-6.2c-0.2-2-0.4-4-0.8-6.1
								c-0.3-2.1-0.6-4.2-1-6.4c-0.2-1.6-0.4-3.6-0.6-4.8c0,0,0,0.2-0.1,0.2c-0.3-2.9-0.2-2.6,0.1-1.6c0,0.1,0.1,0.3,0.2,0.6
								c0-2.7-1.7-10.9-4.3-20.2c-2.5-9.3-6.2-19.6-8.7-26.9c-1.7-4.2-0.3-0.4-2.4-5.6c-1.4-3.7-2.6-7.1-4-10.4
								c-0.7-1.6-1.3-3.2-1.9-4.8c-0.7-1.6-1.4-3.1-2-4.7c-2.7-6.2-5.7-12.4-9.5-19.8c-2.9-4.5-3.2-4.8-0.5,1c-2-3.7-3.9-7.4-5.9-11
								c1.6,2.3,1.8,2.2,1.2,0.9c-0.3-0.7-0.8-1.6-1.4-2.8c-0.1-0.3-0.3-0.6-0.4-0.9l-0.2-0.4l-0.1-0.3c-0.1-0.2-0.2-0.4-0.2-0.6
								l0-0.3c0,0,0-0.1,0-0.1l-0.1-0.3c-0.6-3.1-1.7-6-2.3-7.4c-0.3-0.7-0.4-1-0.1-0.8c0.2,0.2,0.8,1,1.6,2.6
								c-0.3-0.8-0.7-1.8-1.3-2.9c-0.6-1.1-1.3-2.3-2.5-3.7c-0.2-0.2-0.4-0.5-0.7-0.6c-0.2-0.1-0.1-0.3-0.1-0.4c0-0.2,0-0.3,0-0.5
								l-0.1-0.5c-0.1-0.3-0.1-0.7-0.2-1c-0.1-0.7-0.3-1.5-0.6-2.4c-0.3-0.8-0.6-1.7-1.2-2.8c-0.2-0.3-0.4-0.6-0.6-0.8
								c-0.3-0.3-0.6-0.6-0.9-0.9c-0.4-0.3-0.9-0.6-1.4-0.8c-0.5-0.2-1.1-0.4-1.7-0.4c-0.3,0-0.6,0-1,0.1c-0.2,0-0.4,0.1-0.6,0.1
								c-0.2,0.1-0.4,0.1-0.6,0.2c-0.2,0.1-0.5,0.2-0.7,0.3c-0.2,0.1-0.4,0.2-0.6,0.4c-0.6,0.4-0.7,0.5-1,0.8
								c-0.6,0.5-1.4,1.1-2.5,2c-1.1,0.8-2.5,2-4.2,3.4c-2.4,2-4.1,3.4-5.3,4.5c-1.2,1.1-2.1,1.9-2.8,2.6c-0.8,0.7-1.5,1.4-2.5,2.4
								c-1,1-2.2,2.3-4,4.2c-1.8,1.7,0.5-1.3,0.1-1.1c-1.3,1.6-2.4,2.9-3.3,4.1c-0.9,1.2-1.7,2.2-2.4,3.1c-1.5,1.8-2.5,3.2-3.6,4.5
								c-2.1,2.7-4.2,5.2-7.9,11.9c-0.8,1.4-1.6,3-2.5,4.7c-0.9,1.7-1.7,3.6-2.6,5.5c-0.4,0.9-0.8,1.9-1.2,2.8l-0.3,0.7l-0.2,0.4
								c-0.1,0.2-0.1,0.3-0.2,0.5c-0.1,0.3-0.2,0.6-0.3,0.9c0,0.2-0.1,0.3-0.1,0.5l-0.1,0.2c0,0.1,0,0.2-0.1,0.1
								c-1.1-0.3-2-0.3-2.1-0.1c-0.7-0.1-1.3-0.3-1.9-0.4c-0.7-0.1-1.3-0.2-1.9-0.3c-1.2-0.2-2.2-0.4-3.1-0.5
								c-1.7-0.3-2.8-0.5-3.5-0.7C571.5,203.7,571.8,203.6,572.4,203.4z"/>
						</g>
					</g>
				</g>
				<path class="st3" d="M360.7,793.9c-11.9,16.9-15.6,40.2-15.8,63.1c11.2,2,23.1,3.6,34,3.5c12.2,0,27.9,2.2,38.6-3.4
					c6.3-3.3,5.3-17.3,3.4-22.6C411,807.3,386.9,797.9,360.7,793.9z"/>
				<path class="st3" d="M308,777.1c-16.2,5.5-31.3,13.2-38.7,25.2c6,18.3,18.1,31.9,33.7,40.9c4-20.4,13.3-38.7,27.6-54.4
					c-4.4-1.2-8.6-2.7-12.6-4.8C314.5,782.2,311.1,779.8,308,777.1z"/>
				<path class="st3" d="M308.3,689.3c-4.3,1.1-8.5,2.7-12.3,5.2c-17.3,11.2-26.7,31.4-30.1,52.8c18.4-15.9,57.2-9.1,77.5,6.2
					c2.5-1.1,4.9-2.4,7.2-3.9C345.1,725.5,329.5,701.2,308.3,689.3z"/>
				<path class="st3" d="M552.6,240.5c1.2,6.5,3.6,23.3,12,26.5c10.5,3.9,12.2-11.2,13.8-18.7c2.6-12.5,3.7-25,4-37.7
					c-3.8-0.8-8.1-1.3-13.3-2.1c-6.5-1-13-1.8-19.5-2.4C549.8,217.6,550.5,229.1,552.6,240.5z"/>
				<path class="st3" d="M518.8,257.8c9.5-15.5,12.2-34.8,14.1-53c-2.9-0.1-5.7-0.3-8.6-0.4c-5-0.1-10.4-0.2-15.8-0.2
					C507.3,223.3,507.6,243,518.8,257.8z"/>
				<path class="st3" d="M367.2,322c-1.4-0.7-2.8-1.5-4.2-2.4c0,0.1,0,0.3,0,0.4c0,8.5,1,16.7,3,24.5c2.4,0.6,4.8,1.1,7.2,1.7
					C369.9,338.2,368,330.1,367.2,322z"/>
				<path class="st3" d="M425,343.4c-15.6-10.6-37.3-12-54.7-19.9c0.2,5.7,0.7,11.3,1.5,16.7c2.2,2.5,4.5,5,6.8,7.4
					c4.6,1.1,9.3,2.2,14,3.2C400.5,352.4,445.3,357.2,425,343.4z"/>
				<path class="st3" d="M374.6,256.2c-5.2,16.5-9.4,33.7-10.9,50.9c1.1-0.5,2.1-0.9,3-1.1c0.2,0,0.4-0.1,0.6-0.1
					c1-11.8,3.9-23.6,7.9-35.4c-2.3,11.6-3.9,23.4-4.6,34.9c4.3-0.5,8.7-0.8,13-0.9c0.2-5.3,0.7-10.6,1.5-16c0,0.7,0,1.4,0.1,2.1
					c0.3,4.6,0.9,9.3,1.5,13.9c15-0.2,30.1,0.7,44-4.6C414.4,281.3,390.9,273.2,374.6,256.2z"/>
				<path class="st3" d="M688.2,306.6c0.4-1.7,0.7-3.5,1-5.2c-1-14.3-3.4-28.6-7-42.7c-22.2,18.9-49.6,33.4-75.4,52
					C627.3,330.7,660.4,320,688.2,306.6z"/>
				<path class="st3" d="M599.2,360.1c0.8,2.5,23,5,25.1,5.2c9,0.8,18.3,0.4,27.3-0.7c8.1-1,16.3-2.6,24.5-4.6
					c3.1-8.3,5.1-16.8,6.1-25.6c-16.2,3.9-34,5.5-48.6,8.3C628.2,343.8,596.4,350.5,599.2,360.1z"/>
				<path class="st3" d="M333.4,620.2c11.9,7,42.3,28.6,57.5,23.8c7.8-2.5,6-17.3,2.8-23.7c-3.2-6.3-10.9-11-16.6-15.1
					c-11.9-8.7-24.8-16.5-36.3-25.8c-4.5,12.7-8.3,25.6-11,38.7C331,618.7,332.2,619.5,333.4,620.2z"/>
				<path class="st3" d="M390,473.6c-3.4,6.7-6.8,13.5-10.2,20.2c16.2,12.9,34.1,26.8,53.1,27.8C428.2,501.5,405.2,488.8,390,473.6z
					"/>
				<path class="st3" d="M427.8,566.5c-2.9-18.3-34.2-31-48.5-40.3c-3.9-2.6-7.8-5.2-11.6-8.1c-2.4,4.8-4.7,9.6-7,14.4
					c-1,2.1-2,4.1-2.9,6.2c11.1,6.6,21.1,15.8,31.2,22.9C397.5,567.6,431.9,592.7,427.8,566.5z"/>
				<path class="st3" d="M695,562.9c-2.7-9.1-5.7-18.1-9-27c-19.6,16.5-45,30-61.2,45.6C647.9,597.6,672.3,581.2,695,562.9z"/>
				<path class="st3" d="M623.9,545.1c12.6-2.9,22.7-11.9,31.8-20.1c6.3-5.8,12.4-11.8,18.6-17.6c-3.9-8.6-8.1-17.1-12.6-25.4
					c-2.1-3.9-4.4-7.8-6.7-11.7c-17.7,18.1-34.6,37.2-45.3,58.8C602.8,542.7,604.5,549.5,623.9,545.1z"/>
				<path class="st3" d="M640.4,627.1c-4.9,6.9-14.6,25.9-4.9,33.1c15.9,11.8,58.1-17.4,70.4-25.1c1-0.6,2.1-1.3,3.1-2
					c-1.5-15.9-4.3-31.6-7.8-46.9c-4.9,2.9-10,5.6-15.1,8.3C669.5,603.3,651.1,611.8,640.4,627.1z"/>
				<path class="st3" d="M474.4,253.6c4.3-1.2,11-29.9,12.5-35.3c1.2-4.4,2.3-8.9,3.3-13.3c-9,0.6-18.1,1.8-26.6,3.9
					C465.6,231.1,470.8,254.6,474.4,253.6z"/>
				<path class="st4" d="M553.3,332.1c-3.2,21.5-33.3,22.4-40.1,2.9c-0.2-0.4-0.3-0.7-0.5-0.9c0-0.2,0-0.3,0-0.5
					c2.5-2,5.1-4.8,7-7.9c1.6-2,3.2-3.9,4.8-6c3.4-1.8,3.8-14.2-0.4-14.8c-4.3-0.7-9-0.8-13.4-0.2c-1.9,0.2-4,0.6-5.8,1.2
					c-0.5,0.2-0.9,0.4-1.2,0.6c-3.5,1-6.1,3.8-5.8,8.3c0.4,7.6,7.6,12.3,12,17.8c0,0.3-0.1,0.5-0.1,0.7c0,2.2-0.1,4.5-0.1,6.8
					c-4.9,5.6-11.3,9.6-19.2,9.2c-13.1-0.6-20-13.6-16.7-25.5c0.1-0.5-0.1-4.4-1.1-2.9c-7.1,10.6-2,27.7,8.6,33.9
					c5.2,3.1,10.8,3.5,16,2.1c2.2,8,3.6,23.5,15,19.4c6.6-2.3,11.3-12.3,11.4-19.9c4.4,2.1,9.5,2.9,14.7,1.5
					c11.3-3,17.1-13.7,18-24.6C556.9,329.8,554,327.3,553.3,332.1z"/>
				<path class="st5" d="M499.4,364.9c1.9,7.2,5,14.3,13.1,11.4c3.6-1.3,6.6-4.8,8.6-9C515.8,361.9,505.2,359.8,499.4,364.9z"/>
				<path class="st4" d="M421,375.1c-0.1,0-0.1,0.3,0,0.3C421.1,375.5,421.1,375.1,421,375.1z"/>
				<path class="st4" d="M622.6,358.3c-0.1,0-0.1,0.3,0,0.3C622.7,358.7,622.7,358.3,622.6,358.3z"/>
				<path class="st4" d="M605.9,294c-11-23.3-49.2-13.7-59.6,5c-0.6,1-0.6,9,1.5,7.3c5.8-4.9,11.5-8.9,18.3-11.1
					c-0.1,0.6-0.2,1.1-0.1,1.4c0.4,3,0.9,5.7,3.1,7.9c1.9,2,4.6,2.9,7.3,2.3c5.8-1.3,8-7.9,7.9-13.3c2,0.2,3.9,0.6,5.8,1.1
					c4.9,1.4,9.5,5.8,14.6,5.6C606.6,300.1,606.5,295.2,605.9,294z M579.9,294c-0.1,0.1-0.2,0.1-0.3,0.3c-0.6,0.4-0.9,1-1.6,1.4
					c-1.1,0.7-2.4,1-3.7,0.9c-1.6-0.1-3.8-1-5.1-2.3c2.2-0.5,4.4-0.9,6.8-1c1.3-0.1,2.6-0.1,3.8,0
					C579.9,293.4,579.9,293.7,579.9,294z"/>
				<path class="st4" d="M435.8,300.2c5.1,0.2,9.7-4.2,14.6-5.6c1.9-0.5,3.8-0.9,5.8-1.1c-0.1,5.4,2,12,7.9,13.3
					c2.7,0.6,5.4-0.4,7.3-2.3c2.2-2.2,2.8-4.9,3.1-7.9c0-0.3,0-0.8-0.1-1.4c6.7,2.3,12.4,6.3,18.3,11.1c2,1.7,2-6.3,1.5-7.3
					c-10.5-18.7-48.6-28.3-59.6-5C433.9,295.2,433.8,300.1,435.8,300.2z M460.5,293.1c1.3,0,2.6,0,3.8,0c2.4,0.1,4.6,0.5,6.8,1
					c-1.2,1.4-3.5,2.2-5.1,2.3c-1.3,0.1-2.6-0.2-3.7-0.9c-0.6-0.4-1-1-1.6-1.4c-0.2-0.1-0.3-0.2-0.3-0.3
					C460.5,293.7,460.5,293.4,460.5,293.1z"/>
				<path class="st4" d="M467.8,799.8c-7.7-14.4-21.4-22.4-37.4-21.9c11.3-43.3,13-89,3.2-132.8c-8.2-36.6-28.1-82.9-71.1-86.4
					c-0.9-0.1-1,2.8-0.1,3c85.8,25.1,83.5,150.2,63,218.6c-0.3,1-1,7.2,1.4,7c16.7-1.5,30.9,6.1,38.8,20.8
					C467.1,811,469.1,802.1,467.8,799.8z"/>
				<path class="st4" d="M632,630.2c-4.2,27.9-8.5,55.8-12.7,83.8c-2,13.4-4.1,26.9-6.1,40.3c-0.9,6.2-1.9,12.4-2.8,18.6
					c-0.6,4.1-1.3,8.3-1.9,12.4c0.4,7.9-4,12.5-13.4,13.9c0.4-2.4-1.6-8.8-3.2-3.5c-0.1,0.4-0.1,0.7-0.2,1.1c0,0,0,0,0,0
					c0,0.1,0,0.3,0,0.4c-1.5,8.3-5.7,12.3-12.7,12c0.2-2.2,0.5-4.5,0.7-6.7c0.3-1.1-0.2-10.6-2.6-7.1c-2.3,3.9-5.2,7.2-8.8,10.1
					c-6,3-10.3,2.2-12.8-2.5c0-0.3,0-0.6,0-0.9c15.9-22.5,19.4-57.8,22.3-84c3.9-34.6,9.5-71.5,7.7-106.3c-0.1-1-1-2-1.3-0.5
					c-7.2,30.8-6.6,64.1-9.8,95.6c-1.6,15.6-3.5,31.2-7.1,46.5c-3.5,14.9-9.6,28.4-14.8,42.7c-0.8-5.2-2.2-10.8-5.5-14.4
					c-0.7-0.8-1.1-0.3-1.4,0.6c-4.4-22-7.7-44.2-9.6-66.6c-0.8-9.8-1.4-19.6-1.7-29.4c-0.2-6.1-3.8-40.1,2.5-43.5
					c1.4-0.8,1.5-6.5-0.4-5.9c-5.2,1.8-5,7.4-5.5,12.2c-1.5,15-1,30.5-0.5,45.6c1.1,31.9,5.2,63.6,11.6,94.9c1,4.8,2.9,1.7,3.7-1.6
					c0.6,2.9,1.4,5.7,2.1,8.6c0.6,2.7,3.1,9.9,1.7,12.2c-4.9,8.3-13.2-3.1-15.3-7.6c-1.7-3.6-3.2,1.3-3.3,3.1
					c-0.2,4.2-1.1,10.2-5,12.5c-0.7,0.5-10.3,2.2-8.5-1.1c0.1-0.2,0.2-0.6,0.3-1.1c0-0.1,0.1-0.1,0.1-0.2c0.4-0.8,1-6.9-1.2-5.8
					c-3.1,1.6-9.2,8.1-12.7,7.2c-3.9-1.1-3.5-9.5-3.3-12.4c0.4-6.1,2-11.7,1.7-17.9c-0.7-17-7.8-32.9-12.8-48.9
					c-13.5-43.5-19.8-88.8-19.6-134.3c0-6.4-4.5-6.8-4.6-0.2c-0.3,49.2,6.6,98.1,21.4,145.1c6,18.9,12.1,33.9,9,54.1
					c-0.8,5.5-2.8,11-1.4,16.6c3.1,12.6,13.1,9.4,19.4,2.4c0.7,3.4,2.7,6.3,6.2,7.1c8.5,2,12.1-6.8,13.6-14.7c1.7,3.1,3.8,6,7.1,7.4
					c4.2,1.8,8.9,0.4,11.1-3.6c0.7-1.3,1.1-2.7,1.3-4.2c0.5,0.7,1,1.4,1.7,2.1c7,6.5,14.1,1.7,19.3-4.3c0,1.6,0,3.3,0.1,5.1
					c0.1,1.1,0.4,3.5,1.8,3.7c8,0.9,12.4-3.3,15.3-9.2c0.7,3.1,2.3,5.7,5.5,6.7c13.4,4,14.7-25.7,15.6-31.5
					c7.7-50.7,15.4-101.3,23-152C636.4,628.8,633,623.7,632,630.2z"/>
				<path class="st4" d="M688.7,592.9c-20.1,24.5-28.1,54.9-33.8,85.5c-7.4,39.6-16.1,80.6-18.6,120.8c-0.2,2.8,2.6,7.9,3.8,2.7
					c7.6-34.2,10.7-69.7,16.6-104.3c5.7-33.6,11.9-67.9,34-95.1C692.5,600.3,691.4,589.7,688.7,592.9z"/>
				<path class="st4" d="M458.8,819.8c-3.8-10.6-17.8-25.6-30.1-19.9c-1.5,0.7-1.7,6,0.1,6.4c6.3,1.4,11.3,3.6,16.2,7.9
					c4.3,3.9,6.9,10.3,11.6,13.6C459.3,829.7,459.1,820.8,458.8,819.8z"/>
				<path class="st4" d="M597.9,367.4c-2.9-5.6-7.3-9.7-11.7-14.1c-4.2-4.2-8.6-8.5-13.5-11.8c-1.2-0.8-1.3,3.3-0.9,3.9
					c3.7,5.1,8.1,9.9,12.5,14.5c3.8,3.9,7.7,9.1,13.1,10.7C598.5,371,598.1,367.8,597.9,367.4z"/>
				<path class="st4" d="M616.4,355.4c-3.9-5.5-10.1-8.9-15.6-12.7c-5.8-4-11.6-8.2-17.9-11.4c-1.4-0.7-1.5,3.5-0.7,4.2
					c5.5,4.9,11.6,9.2,17.6,13.5c4.7,3.3,10.2,8.9,16.1,9.5C616.9,358.7,616.7,355.9,616.4,355.4z"/>
				<path class="st4" d="M627.3,338c-2.8-3.3-6.6-4.5-10.6-6c-4.1-1.5-8.2-3-12.4-4.6c-2.4-0.9-3.1,6.5-0.7,7.4
					c4.1,1.5,8.3,2.9,12.4,4.4c3.6,1.3,7.2,3.2,11,1.9C627.8,340.9,627.7,338.6,627.3,338z"/>
				<path class="st4" d="M444.5,325.2c-6.8,1.8-13.5,3.8-20.1,6.2c-6.7,2.4-14,4.6-19.1,9.7c-0.4,0.4-0.7,3,0.2,3
					c5.8,0,11.4-3.7,16.7-5.8c7.2-2.8,14.5-5.2,22-7.2C446.2,330.5,445.8,324.8,444.5,325.2z"/>
				<path class="st4" d="M437.8,341.1l-12.3,11.2c-3.8,3.5-8.2,6.9-11,11.2c-0.3,0.5-0.8,3.4,0.4,3.1c4.4-1.4,8.3-6.2,11.7-9.2
					l11.6-10.4C439.6,345.7,438.8,340.1,437.8,341.1z"/>
				<path class="st4" d="M450.1,351.2c-6.1,5.7-12.9,11.2-17,18.7c-0.2,0.4-0.4,3.2,0.5,2.7c3.2-1.8,5.8-5.6,8.1-8.4
					c3.1-3.7,5.7-7.7,8.5-11.6C450.4,352.3,450.4,350.9,450.1,351.2z"/>
				<path class="st4" d="M455.9,248.7c-8.5-13.3-26-8.6-32.6,4c-0.3,0.5-0.3,3.7,0.7,2.6c8-8.3,21.4-6.7,30.9-2.4
					C456.6,253.7,456.3,249.4,455.9,248.7z"/>
				<path class="st4" d="M595.7,261.2c-4.7-18.9-28.8-19.1-38.4-3.9c-1.2,1.9-0.1,9.9,1.5,7.4c4.1-6.5,11.1-10.7,19-10.1
					c7.2,0.6,11.4,5.3,17.2,8.9C595.7,264,595.8,261.6,595.7,261.2z"/>
				<path class="st4" d="M419.5,181.6c-1.6-3.3-3.3-1.5-4.3,1.1c-0.7,1.8-1.2,3.6-1.6,5.4c0-0.3,0-0.7-0.1-1c0-0.3-0.2-1-0.5-0.6
					c-0.2,0.2-0.4,0.4-0.7,0.6c-1.2,0.2-1.7,1.5-2,2.5c-2.2,8.9-4,18-5.9,27c-0.4,1.8-1.4,8.3,1.7,8.6c8.4,1,19.1,0.8,22.6-8.4
					C433.2,204.7,424.5,192,419.5,181.6z M411.9,206.7c0.1,1.8,0.3,3.7,0.5,5.6c-0.1,0.6-0.1,1.2-0.1,1.8c-0.7,0-1.4,0-2,0
					C410.8,211.6,411.4,209.2,411.9,206.7z"/>
				<path class="st4" d="M634.5,196.8c-1.1-7.6-2.1-15.1-3.2-22.7c-0.2-1.7-1.9-5.1-3.9-2.7c-9.2,11.7-17.9,24.7-22.4,39
					c-0.4,1.2,0.3,10.7,2.6,7.2c0.5-0.7,1-1.4,1.4-2.2c0.2,2.4,1,4.5,2.8,4.8c9.6,1.7,21.9,6.8,23.9-6.5
					C636.7,208.2,635.2,202.3,634.5,196.8z"/>
				<path class="st6" d="M563.7,405.8c-15.6,9.8-29.6,21.3-42.6,34.3c-0.2,0.2-0.3,0.4-0.4,0.6c-0.9,0.5-1.5,1.8-1.8,3.5l-0.9,0.8
					c-7.7-9.7-16.4-18.2-25.2-26.9c-5-4.9-11.2-14.2-16.9-5.6c-4.5,6.9-3.9,18.8-4.2,26.7c-0.4,12.7,0.7,25.3,2.9,37.8
					c0.2,1.3,1.1,4,2.6,4.5c0.4,1.5,0.8,3,1.2,4.5c0.3,0.9,1.2,2.6,2.4,2.6c8.2-0.1,13.3-5.2,19.3-10.4c7.3-6.2,14.6-12.5,22-18.7
					c7.6,6.6,15.2,14.7,23.7,19.8c5.9,3.6,10.9,1.9,14.3-4c3.8-6.6,3.9-15,4.6-22.4c1.1-12.7,2.3-25.5,3.4-38.2
					C568.2,413.4,567.5,403.3,563.7,405.8z"/>
				<path class="st4" d="M525.2,447c-0.7-5.2-6.3-7.5-10-4.2c-4,0.2-4,7.6-3.4,10.5c0.8,4.2,4.4,8.8,9.2,7.2
					C525.7,458.9,525.7,451,525.2,447z M521.3,456.8c-2.2,1.1-4.9,0.4-6.5-1.2c-1.2-1.2-1.8-2.8-2-4.4c-0.3-1.8,0.3-4.5,1.9-5.3
					c0.3-0.1,0.6-0.2,0.9-0.3c0.3,0,0.5,0,0.8,0c0.2,0,0.3-0.1,0.4-0.4c1.5-0.4,3-0.7,4.6,0.2C524.6,447.2,524.7,455.1,521.3,456.8z
					"/>
				<path class="st4" d="M511.4,446.4c-2.1-3.1-4.7-6-7.4-8.6c-2-1.9-5.8-5.5-8.8-4.7c-0.7,0.2-0.6,1.6-0.3,2
					c1.9,2.9,5.6,4.2,8.1,6.5c2.6,2.5,4.8,5.4,7.8,7.5C511.7,449.9,511.7,446.9,511.4,446.4z"/>
				<path class="st4" d="M510.8,452.1c-6.4-0.9-14-2.2-20.3-0.2c-0.6,0.2-0.5,1.9,0,2.1c6.2,2.1,13.6,1.6,20.1,2.4
					C511.8,456.5,512.1,452.2,510.8,452.1z"/>
				<path class="st4" d="M513.5,458.6c-0.2-0.1-0.4-0.2-0.6-0.3c-0.1-0.1-0.2-0.1-0.3,0c-2.3,1.8-4.7,3.6-7.2,5
					c-2.7,1.5-5.7,2.6-8.3,4.3c-0.4,0.2-0.6,1.9,0,1.9c3.4,0.3,7.1-1.7,9.9-3.5c2.7-1.7,5.7-3.9,6.5-7
					C513.6,458.8,513.6,458.6,513.5,458.6z"/>
				<path class="st4" d="M546.2,467.7c-2.7-5.7-10.9-9-16.6-10.8c-0.8-0.3-1.3,3.4-0.2,3.8c3.3,1,6.5,2.4,9.5,4.3
					c2.1,1.3,4.5,4.3,6.9,4.6C546.4,469.6,546.3,468,546.2,467.7z"/>
				<path class="st4" d="M546.2,448.6c-5.3-1-11.1-0.7-16.5-1c-1,0-1.1,3.4-0.1,3.4c5.4,0.2,11.2,1,16.5,0.5
					C546.9,451.5,547,448.7,546.2,448.6z"/>
				<path class="st4" d="M548.4,424.6c-7.3,4.6-14,10.3-20.4,16c-0.6,0.5-0.3,3,0.2,2.6c6.6-5.5,13.6-10.4,20.5-15.5
					C549.4,427.2,549.2,424.1,548.4,424.6z"/>
				<path class="st3" d="M631.8,402c0-0.7-0.5-0.4-0.5,0.2c0,2-0.3,4.1,0.1,6.1c0.1,0.5,0.4,0.2,0.4-0.1
					C632.1,406.1,631.8,404,631.8,402z"/>
				<path class="st3" d="M624.1,413.4c-0.1-1.7-1-0.4-1,0.6c0.1,4-0.2,8.4,0.9,12.3c0.2,0.6,0.5-0.1,0.6-0.3
					C625.2,421.9,624.5,417.6,624.1,413.4z"/>
				<path class="st3" d="M631,423.5c-0.1,0-0.1,0.3,0,0.3C631.1,423.8,631.1,423.5,631,423.5z"/>
				<path class="st3" d="M632.8,424.8c0-0.5,0-1.9-0.7-2c-0.7,0-0.9,1.5-0.9,1.9c0,1.1,0,7.9,1.9,7.5c0.4-0.1,0.5-0.8,0.5-1.1
					C633.8,428.9,632.8,426.9,632.8,424.8z"/>
				<path class="st3" d="M626.3,441.4c-0.1,0-0.1,0.3,0,0.3C626.4,441.7,626.4,441.4,626.3,441.4z"/>
				<path class="st3" d="M625.2,444c-0.1,0-0.1,0.3,0,0.3C625.3,444.3,625.3,444,625.2,444z"/>
				<path class="st3" d="M621.9,437.8c-1.3-0.6-1.3,2.6-1.2,3.2c0.4,1.9,0.9,3.8,1.5,5.6c0.2,0.7,0.7,1.1,1.3,0.6
					c0.7-0.5,0.8-1.9,0.8-2.6C624.3,442.7,624.1,438.9,621.9,437.8z"/>
				<path class="st3" d="M637,457.7c0-0.1,0-0.1,0-0.2c0-0.1,0-0.2,0-0.3c0-0.3,0-0.5-0.1-0.7c0,0.1,0,0.2,0,0.4
					c0-0.3-0.1-0.7-0.2-1c-0.3-1-0.7-2-1.2-3c-0.7-1.4-1.5-3-2.9-3.9c-0.9-0.6-0.9,2-0.9,2.4c0.5,2.9,1.5,6.9,3.6,9.1
					c0.5,0.5,1.1-0.6,1.2-0.9c0.1-0.3,0.1-0.6,0.2-0.9c0,0.2,0,0.1,0.1-0.4c0,0,0,0,0,0C637,458,637,457.9,637,457.7z"/>
				<path class="st3" d="M625.8,469.7c-0.1,0-0.1,0.3,0,0.3C625.8,470,625.9,469.7,625.8,469.7z"/>
				<path class="st3" d="M429.1,430c-0.9,0.6-1.7,0.7-2.4,1.5c-0.9,0.9-1.6,2.1-2.1,3.2c-1.1,2-2.1,4.9-1.6,7.2
					c0.1,0.3,0.2,0.8,0.5,0.8c0,0,0.1,0,0.1,0c0.3,0,0.6-0.4,0.7-0.6c0.7-1.5,1.3-3,2.1-4.4c0.9-1.7,1.9-3.8,3-5.3
					C429.6,432,429.7,429.6,429.1,430z"/>
				<path class="st3" d="M431.5,450.3c-0.1,0-0.1,0.3,0,0.3C431.6,450.6,431.6,450.3,431.5,450.3z"/>
				<path class="st3" d="M436,441.9c-0.1-0.6-0.6-1.7-1.3-0.9c-2,2.6-3.9,6.2-2.9,9.6c0,0.2,0.2,0.4,0.4,0.3c0.7-0.5,1-1.4,1.3-2.2
					c0.5-1.3,1.1-2.5,2-3.7C436.2,444.2,436.2,442.9,436,441.9z"/>
				<path class="st3" d="M421.5,454.2c-0.4-1.1-1.2-1.2-1.7-0.1c-1.9,3.8-4.2,8.4-4,12.8c0,0.1,0.1,0.8,0.4,0.7
					c1.2-0.3,1.8-2.4,2.3-3.3c1-2,1.9-4,2.9-5.9C421.9,457.2,422,455.4,421.5,454.2z"/>
				<path class="st3" d="M406.2,452.4c-3,3.5-5.3,8.1-5.5,12.8c0,0.2,0.1,1.4,0.5,1.1c1.3-0.8,2-2.6,2.7-3.9c1.1-2,2.2-4.1,3.4-6.1
					C407.8,455.5,407.6,450.8,406.2,452.4z"/>
				<path class="st3" d="M425.2,478.1c-0.1,0-0.1,0.3,0,0.3C425.3,478.4,425.3,478.1,425.2,478.1z"/>
				<path class="st3" d="M426,414.7c-0.3-0.8-1-1-1.4-0.1c-1.4,3.4-3.3,6.9-3.5,10.6c0,0.2,0,1.2,0.4,1.1c1.2-0.3,1.7-1.8,2.1-2.9
					c0.8-1.8,1.5-3.6,2.2-5.4C426.3,417,426.4,415.7,426,414.7z"/>
				<path class="st3" d="M408.8,381.8c-0.7-2.5-2.6-4.6-4.1-6.7c-0.6-0.8-1.1,0.2-1.3,0.7c-0.3,0.8-0.4,2.3,0.2,3
					c0.8,1.1,1.6,2.2,2.4,3.3c0.6,0.8,1.2,1.7,2.2,1.9C409.1,384.3,408.9,382.2,408.8,381.8z"/>
				<path class="st3" d="M424.1,387.4c-0.4-2-1.7-3.4-3.2-4.9c-1.2-1.2-2.5-2.5-4.2-3c-0.3-0.1-0.3,1-0.2,1.1c0.8,1.8,1.9,3.3,3,4.8
					c1,1.3,2.1,2.8,3.5,3.6c0.1,0.1,0.2,0.1,0.4,0c0.1-0.1,0.2-0.2,0.4-0.2C424.2,388.6,424.2,387.8,424.1,387.4z"/>
				<path class="st3" d="M419.5,396.8c-0.1,0-0.1,0.3,0,0.3C419.5,397.1,419.5,396.8,419.5,396.8z"/>
				<path class="st3" d="M422.9,402c-0.9-3-4.4-5-6.8-6.9c-1-0.8-1.9,3.7-0.7,4.6l3.9,3c0.9,0.7,2.2,2,3.3,1.1
					C423.1,403.5,423.1,402.5,422.9,402z"/>
				<path class="st3" d="M420.5,397.8c-0.1,0-0.1,0.3,0,0.3C420.6,398.1,420.6,397.8,420.5,397.8z"/>
				<path class="st3" d="M397.3,377.2c-1.1-3.4-4.4-5.9-6.8-8.4c-0.7-0.7-1.3,1.4-1.3,1.7c-0.2,1-0.2,2.4,0.6,3.1
					c1.2,1.2,2.4,2.4,3.6,3.6c0.9,0.9,2.1,2.3,3.5,2C397.5,379,397.4,377.7,397.3,377.2z"/>
				<path class="st3" d="M415.5,476.4c-0.2-0.6-0.6-1.3-1.2-0.6c-2,2.2-3.9,4.8-4.3,7.9c0,0.4-0.1,1.3,0.3,1.5
					c1.1,0.6,1.9-0.7,2.4-1.5c1-1.4,1.8-2.9,2.5-4.4C415.8,478.5,415.8,477.3,415.5,476.4z"/>
				<path class="st3" d="M449.5,419.1c-1.5-1.5-4-1.2-6-1.8c-2.2-0.6-4.1-1.7-5.8-3.2c-0.4-0.4-0.4,1.3-0.3,1.5
					c1.8,3.2,8.4,9.7,12.2,5.9C450.1,421,450,419.6,449.5,419.1z"/>
				<path class="st3" d="M606.3,446.7c-0.4-1.3-0.8-2.8-1.6-4c-0.7-1.1-1.1,1.6-1.1,1.9c0.1,1.9,0.5,3.8,1.1,5.6
					c0.4,1.1,0.8,2.7,2.1,3c0.5,0.1,0.5-1.3,0.5-1.5C607.3,450,606.9,448.4,606.3,446.7z"/>
				<path class="st3" d="M622.6,470.6c-1.2-4.4-3.6-8.3-5.8-12.2c-0.5-1-1.2,0.3-1.4,0.8c-0.3,1-0.3,2.4,0.2,3.3
					c1.8,3,3.6,7.1,6.7,9.1C622.7,471.9,622.7,470.7,622.6,470.6z"/>
				<path class="st3" d="M618.1,487.2c-1.1-2.4-2.9-4.3-4.6-6.2c-0.9-1.1-1.5,2.5-0.7,3.3c1.4,1.5,2.9,3.7,5,4.4
					C618.3,488.8,618.2,487.4,618.1,487.2z"/>
				<path class="st3" d="M638.9,478.1c0-0.1,0-0.1,0-0.3c0,0,0,0,0-0.1c0-0.1,0-0.1-0.1-0.2c0-0.1,0-0.2-0.1-0.2
					c0-0.1-0.1-0.2-0.2-0.3c0,0,0-0.1,0-0.1c0,0,0,0,0,0c-0.2-0.4-0.5-0.9-0.8-1.3c-0.7-1-1.3-1.9-1.7-3c-0.4-1-1.1-1-1.6-0.1
					c-0.5,1-0.6,2.8-0.2,3.8c0.7,1.7,1.7,3.8,3.3,4.8c0.7,0.4,1.1-0.9,1.2-1.3C639,479.3,639,478.7,638.9,478.1z"/>
				<path class="st3" d="M648.9,467.1c-0.1,0-0.1,0.3,0,0.3C648.9,467.4,649,467.1,648.9,467.1z"/>
				<g>
					<path class="st3" d="M652.1,471.7c0,0.1,0,0.1,0.1,0.2C652.1,471.8,652.1,471.7,652.1,471.7z"/>
					<path class="st3" d="M652.4,472.5C652.4,472.5,652.4,472.5,652.4,472.5c-0.1-0.3-0.1-0.5-0.2-0.7c0,0.1,0.1,0.2,0.1,0.3
						c-0.1-0.2-0.1-0.3-0.2-0.5c-0.4-0.9-1.1-1.6-1.8-2.3c-1.1-1.3-2.3-2.6-3.4-3.9c-1.4-1.6-2.3,3.5-1.3,4.7
						c0.9,1.1,1.9,2.1,2.8,3.2c0.9,1,1.6,2,2.7,2.7c0.7,0.5,1.1-0.9,1.2-1.4c0.1-0.6,0.2-1.4,0-2
						C652.5,473.1,652.6,473.3,652.4,472.5z"/>
				</g>
				<path class="st3" d="M397.5,481.4c-1.9-0.2-3.7,2.7-4.6,4.1c-1.5,2.2-2.3,4.6-2.6,7.2c0,0.2-0.1,2,0.6,1.6
					c1.5-0.8,2.3-2.2,3.3-3.5c1.3-1.8,2.9-3.6,3.8-5.7C398.3,484.4,398.8,481.6,397.5,481.4z"/>
				<path class="st3" d="M408.7,503c-0.2-0.9-0.8-2.2-1.8-1.2c-2.8,3-5.2,7.1-4.8,11.3c0,0.2,0.1,0.9,0.4,0.8
					c0.9-0.1,1.9-1.6,2.3-2.4c1-1.5,1.9-2.9,3.2-4.3C409,506.4,408.9,504.3,408.7,503z"/>
				<path class="st3" d="M428,479.9c-0.2-0.8-0.8-2.3-1.7-1.2c-1.4,1.7-2.6,3.6-3.5,5.6c-0.8,1.8-1.7,4.2-1.4,6.2
					c0.3,2.4,1.8,0.1,2.4-1c0.8-1.3,1.6-2.6,2.4-3.9c0,0,0,0.1,0,0.1c0.1,0,0.1-0.1,0.1-0.2c0.3-0.5,0.6-1,1-1.4
					C428.2,483.1,428.3,481.2,428,479.9z"/>
				<path class="st3" d="M382.2,513.3c-0.1,0-0.1,0.3,0,0.3C382.3,513.6,382.3,513.3,382.2,513.3z"/>
				<path class="st3" d="M383.9,507.5c-0.2-0.7-0.7-2-1.5-1.1c-2.2,2.6-4.2,5.7-4.5,9.1c0,0.2,0,3.3,0.9,2.5c0.9-0.8,1.4-2,2-3.1
					c0.7-1.3,1.6-2.5,2.6-3.7C384.1,510.3,384.1,508.6,383.9,507.5z"/>
				<path class="st3" d="M415.7,521.5c-1.7,0.6-2.7,2.7-3.3,4.3c-0.9,2.3-1.2,4.8-1.1,7.2c0,0.6,0.3,2.4,1.2,2.5
					c0.9,0,1.3-1.7,1.4-2.4c0.4-3,1.4-5.5,2.4-8.3C416.5,524.3,417,521,415.7,521.5z"/>
				<path class="st3" d="M599.9,410.6c0.1-1.7-1.3-3-1.6-0.6c-0.4,2.6-0.5,5.2-0.1,7.9c0.2,1.6,0.5,4.4,2.3,4.8
					c0.4,0.1,0.5-0.9,0.5-1C600.9,417.9,599.7,414.3,599.9,410.6z"/>
				<path class="st3" d="M531.6,397c-6.8,2.7-10.6,8.1-18.9,6.8c-8-1.2-10.7-7.7-17-11.4c-0.8-0.5-0.8,1.9-0.6,2.2
					c3.3,8.5,8.5,17.1,18.3,18.7c9.3,1.5,17-4.6,19.1-13.3C532.6,399.5,532.8,396.5,531.6,397z"/>
				<path class="st3" d="M593.4,571.4c-0.4-2-1.4,0.3-1.3,1.2c0.2,1.9,0.3,3.8,0.3,5.7c0,1.5-0.1,3.1,0.3,4.5c0.1,0.5,0.5,1,0.8,0.3
					C595.1,579.8,594.2,574.8,593.4,571.4z"/>
				<path class="st3" d="M603.6,578.4c-1-0.5-1.5,1.3-1.6,2c-0.4,2.3-0.6,4.6-0.6,7c0,1.1-0.1,3.9,1,4.6c0.3,0.1,0.4-0.1,0.5-0.3
					c0.7-1.2,0.6-2.8,0.7-4.2c0.1-1.8,0.3-3.6,0.6-5.4C604.4,581.1,604.6,578.9,603.6,578.4z"/>
				<path class="st3" d="M613.1,591.1c-0.3-2.7-1.8-1.6-2,0.6c-0.3,4.6-0.7,9.7-0.1,14.3c0.1,0.5,0.5,0.9,0.8,0.3
					C613.7,601.8,613.6,595.7,613.1,591.1z"/>
				<path class="st3" d="M598.6,606.1c-1.2-0.1-1.6,2.6-1.5,3.3c0,2,0,4.1,0.3,6.1c0.1,0.6,0.4,1.6,1.1,1.4c0.7-0.1,1-1.5,1.1-2
					c0.3-1.8,0.2-3.6,0.3-5.4C599.9,608.7,599.9,606.2,598.6,606.1z"/>
				<path class="st3" d="M613.2,565.3c-0.1,0-0.1,0.3,0,0.3C613.2,565.6,613.3,565.3,613.2,565.3z"/>
				<path class="st3" d="M616.2,566.9c-0.1-2.8-0.4-5.8-1.2-8.5c-0.2-0.8-0.7-0.9-1.3-0.5c-0.7,0.6-0.7,2.1-0.6,2.9
					c0.2,2.6,0.7,5.2,1,7.7c0.2,1.4,0,3.7,1,4.8c0.1,0.1,0.3,0,0.4-0.1C616.6,571.6,616.3,568.9,616.2,566.9z"/>
				<path class="st3" d="M626.4,593.8c0-0.7,0-2.8-1.1-2.9c-1,0-1.3,2.2-1.3,2.8c0,3.3-0.4,7,0.4,10.2c0.3,1.1,1.2,1.3,1.4,0.1
					C626.6,600.7,626.4,597.2,626.4,593.8z"/>
				<path class="st3" d="M619.4,623.1c-1.2-0.6-1.7,1.5-1.8,2.3c-0.5,3.7-1.2,7.4-1.5,11.1c0,0.7,0,2.5,0.8,2.9
					c0.8,0.4,1.3-0.7,1.5-1.3c0.9-3.5,1.3-7.2,1.8-10.8C620.3,626.3,620.5,623.7,619.4,623.1z"/>
				<path class="st3" d="M636.8,609.4c-0.1,0-0.1,0.3,0,0.3C636.9,609.7,636.9,609.4,636.8,609.4z"/>
				<path class="st3" d="M435.4,579.6c-0.1-2.2-1.6-1.3-1.6,0.5c-0.1,3.2,0,6.3,0.6,9.5c0.4,2.2,0.7,5.5,2.5,7
					c0.6,0.5,0.8-1.5,0.8-1.7C437.4,589.8,435.6,584.8,435.4,579.6z"/>
				<path class="st3" d="M446.6,596.5c-0.1-3.1-0.6-6.1-1-9.2c-0.1-0.6-0.3-2.3-1.3-1.9c-0.9,0.4-0.9,2.5-0.9,3.2
					c0.3,3.3,0.4,6.7,1,9.9c0.1,0.8,0.5,1.7,1.4,1.2C446.7,599.2,446.6,597.3,446.6,596.5z"/>
				<path class="st3" d="M453.8,558.1c0-0.7,0-3.1-1.1-3.1c-1.1,0-1.4,2.3-1.4,3c0,1.2-0.6,11.2,1.2,11
					C454.6,568.9,453.8,559.5,453.8,558.1z"/>
				<path class="st3" d="M444.1,561.6c-0.1,0-0.1,0.3,0,0.3C444.2,561.9,444.2,561.6,444.1,561.6z"/>
				<path class="st3" d="M436.7,543.4c-0.4-1.5-1.4-0.9-1.5,0.4c-0.6,4.7-0.8,10.6,1.1,15.1c0.3,0.6,0.7,0.3,0.8-0.2
					C438.2,553.9,437.9,548.2,436.7,543.4z"/>
				<path class="st3" d="M459.5,586.8c-0.2-1.9,0.1-3.7,0.2-5.5c0.1-1.1-0.9-4.4-2-2.1c-1.3,2.7-1.3,6-1,8.9
					c0.2,1.4,0.6,5.7,2.8,5.5c0.5,0,0.6-0.9,0.6-1.2C460.1,590.5,459.7,588.7,459.5,586.8z"/>
				<path class="st3" d="M475.6,582.1c-0.1,0-0.1,0.3,0,0.3C475.7,582.4,475.7,582.1,475.6,582.1z"/>
				<path class="st3" d="M481.2,584.6c-0.3-2.3-0.1-4.6-0.5-6.9c-0.1-0.4-0.5-1.4-1-0.7c-1.6,2.1-1.6,5.5-1.5,8
					c0.1,3.1,0.5,6.1,2.1,8.8c0.1,0.2,0.3,0.4,0.6,0.4c0.1,0,0.2,0,0.4,0c0.7-0.1,0.8-1.3,0.8-1.8
					C482.1,589.7,481.5,587.2,481.2,584.6z"/>
				<path class="st3" d="M487.7,615.1c-0.1,0-0.1,0.3,0,0.3C487.8,615.4,487.8,615.1,487.7,615.1z"/>
				<path class="st3" d="M485.8,613.4c-1.4-0.1-1.8,3.1-1.8,3.9c0,2.1,0,4.1,0.1,6.2c0,0.8,0.4,3,1.6,2.8c1.2-0.3,1.5-2.8,1.5-3.7
					c0.1-1.7,0.1-3.5,0.1-5.2C487.2,616.4,487.3,613.5,485.8,613.4z"/>
				<path class="st3" d="M499.8,594.1c-0.1,0-0.1,0.3,0,0.3C499.9,594.4,499.9,594.1,499.8,594.1z"/>
				<path class="st3" d="M497.6,598.4c-0.2-1.9-1.6-2.2-1.8-0.1c-0.4,3.4-0.3,6.9-0.3,10.3c0,2.3-0.3,5.2,0.9,7.2
					c0.2,0.4,0.5,0.1,0.6-0.2c1.1-2.2,0.8-5.1,0.9-7.5C497.9,604.9,498,601.6,497.6,598.4z"/>
				<path class="st3" d="M511.8,623.3c-0.1-0.9-0.4-3.3-1.8-2.7c-1.3,0.5-1.4,3.6-1.3,4.6c0.1,2.3,0.1,4.7,0.1,7
					c0,1.6-0.2,3.8,0.8,5.2c0.2,0.2,0.3,0.3,0.6,0.2c1.6-0.7,1.6-4.3,1.7-5.7C512,629,511.9,626.1,511.8,623.3z"/>
				<path class="st3" d="M476.2,651.9c-0.1,0-0.1,0.3,0,0.3C476.2,652.2,476.2,651.9,476.2,651.9z"/>
				<path class="st3" d="M449.6,617.9c-0.2-1-0.7-2.1-1.7-1.2c-1,0.8-0.8,3.2-0.6,4.3c0.8,4.1,0.6,8.2,1.5,12.3
					c0.1,0.5,0.5,1,0.9,0.3C451.9,628.8,450.9,622.8,449.6,617.9z"/>
				<path class="st3" d="M434.5,611.1c-0.4-1-1-1.2-1.7-0.3c-0.8,1.1-0.7,2.8-0.5,4c0.4,2.4,1,4.9,1.6,7.2c0.3,1.2,0.7,3.5,2,3.9
					c0.3,0.1,0.6-0.6,0.6-0.8C437.7,620.8,436.2,615.1,434.5,611.1z"/>
				<path class="st3" d="M405.4,648.3c-1.1-0.7-1.1,2.8-0.7,3.3c3.3,4.2,4.7,8.1,3.9,13.5c0,0.3,0.2,2.6,0.8,1.7
					C412.7,661.5,411,651.7,405.4,648.3z"/>
				<path class="st3" d="M407.4,685.5c-0.1,0-0.1,0.3,0,0.3C407.5,685.8,407.5,685.5,407.4,685.5z"/>
				<path class="st3" d="M405.1,684.1c-0.7-1.1-1.5,0.3-1.7,1c-0.4,1.2-0.4,2.8,0.3,4c1.3,2.3,1.8,4.6,1.7,7.2
					c-0.1,1-0.4,3.4,0.9,3.8c0.5,0.1,0.9-0.9,1-1.2C408.8,693.9,407.9,688.3,405.1,684.1z"/>
				<path class="st3" d="M419.1,675c-1.4-3-2.6,2.8-2,4.3c1.7,4.3,1.7,8.5,2.2,13c0,0.2,0.4,1.6,0.8,0.9
					C423.2,688.1,421.4,680,419.1,675z"/>
				<path class="st3" d="M416,630c-0.6-2.8-2.3-5.3-4.9-6.6c-2-1-2.9,5.9-1,6.7c1.4,0.7,2.6,1.6,3.2,3.1c0.2,0.4,0.5,1.3,0.5,1.4
					c0.1,0.2,0.1,0.5,0.1,0.7c0,0,0,0.8,0,0.9c0,0.2,0.1,1.8,0.7,1.4C416.8,636.4,416.4,632,416,630z"/>
				<path class="st3" d="M425.1,646.9c-0.4-1.1-1.2-1-1.7-0.1c-0.6,1.2-0.5,2.8-0.2,4c0.8,2.5,0.8,4.9,0.9,7.5c0,0.6,0.2,2,1,2.1
					c0.8,0.1,1.1-1.5,1.2-2C427,654.6,426.3,650.6,425.1,646.9z"/>
				<path class="st3" d="M393.7,602.5c-0.1,0-0.1,0.3,0,0.3C393.8,602.8,393.8,602.5,393.7,602.5z"/>
				<path class="st3" d="M388.5,676.1c-0.5,0.1-0.5,1.1-0.4,1.4c0,0.7,0,1.4,0.1,2.1c0,1.1,0.8,0.6,0.8-0.2c0-0.7,0-1.4,0.1-2.1
					C389,677,388.9,676.1,388.5,676.1z"/>
				<path class="st3" d="M385.5,666.3c-0.3-1-0.6-1.7-1.6-1.1c-0.9,0.6-0.7,3-0.6,3.9c0.4,2.6,0.8,5.1,0.9,7.7
					c0.1,2.1-0.1,4.3,0.3,6.4c0.1,0.7,0.7,1.3,1.1,0.4C387.9,678.8,386.8,671.4,385.5,666.3z"/>
				<path class="st3" d="M385.3,709.6c-0.1,0-0.1,0.3,0,0.3C385.4,709.9,385.4,709.6,385.3,709.6z"/>
				<path class="st3" d="M390.8,704.8c0-0.7-0.3-2.5-1.3-2.3c-1,0.2-1.2,2.3-1.2,3c-0.2,5-0.6,10.7,0.9,15.6
					c0.2,0.7,0.7,0.2,0.8-0.2C391.4,715.8,391,710.1,390.8,704.8z"/>
				<path class="st3" d="M402.3,712.7c-1.2,0-1.6,2.6-1.6,3.4c0,2.7,0,5.5,0.1,8.2c0.1,2.1-0.2,4.7,0.8,6.7c0.3,0.5,0.7,0.7,1,0
					c0.8-2,0.8-4.3,0.8-6.4c0.1-2.8,0.1-5.6,0.1-8.4C403.5,715.3,403.6,712.7,402.3,712.7z"/>
				<path class="st3" d="M423.1,724.3c-0.1,0-0.1,0.3,0,0.3C423.2,724.6,423.2,724.3,423.1,724.3z"/>
				<path class="st3" d="M488.7,645.4c-0.5-0.7-0.9-0.3-1.1,0.5c-0.9,2.8-1.3,5.8-0.8,8.8c0.2,1,0.8,0.1,0.8-0.5
					c0-2.1,0.3-4.1,1.1-6.1C489,647.4,489.2,646,488.7,645.4z"/>
				<path class="st3" d="M505.4,656.4c-0.1-0.8-0.4-3-1.7-2.5c-1.2,0.5-1.2,3.3-1.2,4.2c0.2,3.8-0.5,7.5-0.4,11.2
					c0,0.5,0.4,2.1,1.2,1.3c1.4-1.5,1.7-4.2,1.9-6.1C505.6,661.8,505.6,659.1,505.4,656.4z"/>
				<path class="st3" d="M650.3,599.7c0-0.7-0.3-2.7-1.5-2.5c-1.1,0.2-1.3,2.5-1.4,3.3c-0.3,5.5-0.6,11.6,0.5,17
					c0.4,2,1.6,0.9,1.8-0.5C650.9,611.5,650.6,605.3,650.3,599.7z"/>
				<path class="st3" d="M640.3,184.1c-0.9-3.9-1.8-12.8-6-14.3c-0.1,0-0.1,0.3-0.1,0.3c0.3,5.8,2.7,11.1,3.9,16.7
					c1.5,6.7,2.2,13.5,2.8,20.3c0.1,1.3,0.8,0.7,0.9-0.3C642.5,199.2,642,191.6,640.3,184.1z"/>
				<path class="st3" d="M412.8,173.2c-8.2,9.2-14.9,21.2-17.8,33.2c-0.1,0.5,0.1,3,0.8,1.7c6.1-10.4,11.1-21.2,17.6-31.5
					C413.9,175.9,413.9,172,412.8,173.2z"/>
				<path class="st3" d="M617,384c-2.6,3.2-5.3,6.2-7.3,9.9c-0.2,0.4-0.4,2.7,0.5,2.3c3.8-1.7,5.9-6.2,7.5-9.8
					C617.9,386,617.8,382.9,617,384z"/>
				<path class="st3" d="M447.7,405c-0.3-1.2-1.2-1.5-2.1-2.1c-1.6-1-3.4-2.2-4.6-3.7c-0.7-0.8-0.8,1.5-0.7,1.8
					c0.9,3.2,2.9,6.8,6.5,7.3c0.3,0,0.6-0.4,0.7-0.6C448,406.8,448,405.9,447.7,405z"/>
				<path class="st3" d="M434.7,465c-0.1,0-0.1,0.3,0,0.3C434.8,465.3,434.8,465,434.7,465z"/>
				<path class="st3" d="M420.5,723.8c-0.3-1.8-1.2,0.2-1.2,1.1c0.5,5.6-0.8,10.7-1.8,16.1c0,0.3,0.2,2,0.6,1.3
					C421.6,737.2,421.4,729.6,420.5,723.8z"/>
				<path class="st3" d="M406.2,752.6c-0.2-0.7-0.5-1.6-1.3-1.1c-0.8,0.5-0.8,2.3-0.7,3c0.3,3.1-0.6,6.1-0.4,9.2
					c0,0.2,0.1,1.3,0.6,1.2c1.6-0.2,2-3.6,2.2-4.8C406.8,757.6,406.7,755.1,406.2,752.6z"/>
				<path class="st3" d="M414.4,768.6c-0.1-0.6-0.4-1.2-1-0.9c-0.6,0.3-0.6,1.9-0.6,2.4c0.1,2.1,0.1,4.1-0.3,6.2
					c-0.3,1.8-0.8,3.4-0.6,5.2c0,0.2,0.2,1.4,0.6,1.3c1.8-0.5,2-4.3,2.2-5.8C415,774.2,414.9,771.4,414.4,768.6z"/>
				<path class="st3" d="M286.6,766.3c-0.1,0-0.1,0.3,0,0.3C286.7,766.6,286.7,766.3,286.6,766.3z"/>
				<path class="st3" d="M283.5,776.8c-0.1,0-0.1,0.3,0,0.3C283.6,777.1,283.6,776.8,283.5,776.8z"/>
				<path class="st3" d="M278.2,767.6c0-0.6,0-2.4-0.9-2.4c-0.9,0-1.1,1.8-1.1,2.3c0,4.2-0.8,9.4,0.6,13.5c0.2,0.7,0.7,0.2,0.8-0.2
					C278.8,776.7,278.2,771.8,278.2,767.6z"/>
				<path class="st3" d="M276.6,799.4c-1.1-4.1-2.9-7.6-2.5-11.9c0.1-0.7,0-2.6-0.9-2.8c-0.9-0.2-1.3,1.4-1.4,2
					c-0.3,3-0.3,6.1,0.5,9.1c0.5,1.9,1.6,5,3.7,5.6C276.7,801.6,276.7,799.7,276.6,799.4z"/>
				<path class="st3" d="M294.5,807.4c-0.7-2.1-2.3-3.9-3.7-5.7c-1.3-1.6-2.5-3.4-3.5-5.2c-0.6-1.2-1.5,0.4-1.7,1
					c-0.4,1.2-0.3,2.8,0.3,4c1.1,2.1,2.3,4,3.9,5.8c0.9,1.1,2.9,3.1,4.4,2.3C294.8,809.3,294.7,808,294.5,807.4z"/>
				<path class="st3" d="M295.3,822.4c-1.5-3.6-5.3-5.7-8.4-8c-1.2-0.9-2.1,4.2-0.8,5.1c1.6,1.2,3.1,2.4,4.7,3.6
					c1.3,0.9,2.6,2,4.2,1.4C295.6,824.3,295.5,822.8,295.3,822.4z"/>
				<path class="st3" d="M315.2,820c-2.1-0.8-4.3-1.1-6.4-1.5c-0.8-0.2-1.2,3.2-0.1,3.3c2.1,0.3,4.2,0.7,6.3,0.6
					C315.6,822.4,315.7,820.2,315.2,820z"/>
				<path class="st3" d="M309.7,832.5c-0.1,0-0.1,0.3,0,0.3C309.8,832.8,309.8,832.5,309.7,832.5z"/>
				<path class="st3" d="M327.8,835.6c-2.4-2.4-7.3-2.6-10.6-2.5c-1.5,0-1.6,4.6-0.2,5c1.8,0.5,3.7,0.7,5.6,0.9
					c1.8,0.2,3.5,0.3,5-0.8C328.3,837.8,328.3,836.2,327.8,835.6z"/>
				<path class="st3" d="M342.4,822.7c-1.8-1.7-5.3-0.4-7.7-0.6c-3.1-0.3-6.3-1.2-9.1-2.4c-1.1-0.5-1.3,2.9-0.5,3.4
					c2.8,1.9,5.6,3.2,8.9,3.7c1.6,0.3,3.3,0.4,4.9,0.3c2-0.1,2.4-0.1,3.6-1.8C342.9,824.6,343,823.2,342.4,822.7z"/>
				<path class="st3" d="M360.4,833.6c-2.9-3.3-8.8-2.6-12.8-2.1c-1.4,0.2-1.4,4.7-0.2,4.6c2.3-0.3,4.5-0.4,6.8-0.2
					c2.1,0.1,4.1,0.7,6-0.3C360.7,835.3,360.8,834,360.4,833.6z"/>
				<path class="st3" d="M366.4,846.2c-3.9-1.2-8.1-0.5-12.1-0.8c-4-0.2-8.1-0.5-12.1-0.8c-0.5,0-0.6,1.7-0.2,1.9
					c7.1,3.1,17.2,5.5,24.4,1.6C366.9,847.8,367,846.3,366.4,846.2z"/>
				<path class="st3" d="M376,819c-2.6-1.4-5.6-1.5-8.5-1.9c-1.1-0.2-1.4,3.9-0.2,4c2.8,0.3,5.7,1,8.4,0.3
					C376.5,821.2,376.7,819.3,376,819z"/>
				<path class="st3" d="M393.2,838.9c-0.9-1.9-2.4-2.6-4.2-3.6c-1.8-1-3.6-2-5.3-3c-1.4-0.8-2.1,4.2-0.8,4.9c1.8,1,3.6,1.9,5.4,2.9
					c1.3,0.7,3.1,2.2,4.6,1.4C393.4,841.1,393.4,839.5,393.2,838.9z"/>
				<path class="st3" d="M277.2,751.6c-0.1,0-0.1,0.3,0,0.3C277.3,751.9,277.3,751.6,277.2,751.6z"/>
				<path class="st3" d="M273.1,751.4c-0.9,0-1.1,1.9-1.1,2.4c0,1.8,0,3.7,0,5.5c0,1.2-0.1,3.1,0.7,4.1c0.2,0.2,0.4,0.3,0.6,0
					c0.7-1.2,0.7-2.7,0.7-4c0-1.8,0-3.7,0-5.5C274,753.3,274,751.5,273.1,751.4z"/>
				<path class="st3" d="M288.2,751.3c-0.5-0.5-0.9,0-1,0.6c-0.7,3-1.3,6-1.9,9c-0.1,0.6,0.4,2.2,0.8,0.9c0.8-2.7,1.6-5.4,2.3-8.1
					C288.5,753.1,288.7,751.9,288.2,751.3z"/>
				<path class="st3" d="M609.9,654c-0.5-2.6-1.8-0.2-1.9,1.2c-0.2,2.4-0.3,4.7-0.7,7.1c-0.4,2.2-1.1,4.3-1.2,6.6
					c0,0.4,0.1,2,0.8,1.7c2-0.8,2.5-5.1,2.9-7C610.4,660.4,610.4,657.1,609.9,654z"/>
				<path class="st3" d="M644.7,650.8c-0.1,0-0.1,0.3,0,0.3C644.7,651.1,644.8,650.8,644.7,650.8z"/>
				<path class="st3" d="M601.2,640.5c-1.1,4.5-2.3,9.2-2,13.9c0,0.5,0.4,1.2,0.7,0.5c2-3.7,2.3-8.7,2.8-12.8
					C602.9,641.1,601.9,638,601.2,640.5z"/>
				<path class="st3" d="M616.9,681.3c-1.2-0.7-1.7,1.6-1.8,2.3c-0.5,3.1-1,6.1-0.9,9.3c0,0.9,0.9,2.8,1.6,1.1
					c1.2-2.7,1.4-5.6,1.9-8.5C617.9,684.5,618.1,682,616.9,681.3z"/>
				<path class="st3" d="M677.3,673.6c-1.1-0.3-1.3,1.9-1.3,2.5c-0.3,3.6-0.8,7.3-0.7,10.9c0,1,0.9,1.8,1.2,0.4
					c0.9-3.5,1.1-7.1,1.6-10.6C678.2,676.2,678.4,673.9,677.3,673.6z"/>
				<path class="st3" d="M688.2,679.4c-0.7-0.8-1.2,0.1-1.4,0.8c-0.7,3-1.5,6.1-2,9.1c-0.1,0.5-0.2,1.7,0.3,2.1
					c0.4,0.4,0.7,0.3,0.9-0.3c1-2.8,1.7-5.6,2.4-8.5C688.7,681.8,688.9,680.1,688.2,679.4z"/>
				<path class="st3" d="M680.4,708.6c-0.1,0-0.1,0.3,0,0.3C680.4,708.9,680.5,708.6,680.4,708.6z"/>
				<path class="st3" d="M696.2,710.5c-1.4,3.8-3,8.3-2.7,12.3c0,0.3,0.2,1.5,0.8,1.2c1.3-0.8,1.7-3.2,2.1-4.5
					c0.7-2.3,1.3-4.5,1.8-6.9C698.5,711.1,697.3,707.4,696.2,710.5z"/>
				<path class="st3" d="M495.3,236.6c-1.2,4.8-3.1,9.5-3.1,14.4c0,0.2,0.3,1.8,0.7,1c2.4-4.1,2.6-9.7,3.6-14.2
					C496.6,236.9,495.7,234.8,495.3,236.6z"/>
				<path class="st3" d="M501,252.8c-0.5-1.4-1.2,0.1-1.3,0.8c-0.4,1.9-0.3,3.9-0.4,5.8c-0.2,1.9-0.4,3.7-0.2,5.6
					c0,0.3,0.3,1.7,0.9,0.9c1.2-1.6,1.4-4.1,1.5-6.1C501.5,257.5,501.7,255,501,252.8z"/>
				<path class="st3" d="M484.9,257.8c-0.1-0.5-0.2-1.9-1-1.5c-0.8,0.3-0.8,2-0.7,2.6c0.1,2.6-0.4,5.2-0.6,7.8c0,0.1,0.1,1.4,0.5,1
					c1.1-0.9,1.5-2.5,1.7-3.9C485.1,261.8,485.1,259.8,484.9,257.8z"/>
				<path class="st3" d="M514,268.5c-0.2-1.7-1.1-0.9-1.2,0.3c-0.4,3.8-0.6,7.5-0.4,11.3c0,0.6,0.2,1.9,1,1.8c0.8-0.1,0.9-1.8,1-2.3
					C514.6,275.8,514.4,272.1,514,268.5z"/>
				<path class="st3" d="M531.2,257.6c-0.8,0.2-0.7,1.8-0.7,2.3c0.1,2,0.1,4.1,0.3,6.1c0.1,0.9,0.8,1,0.9,0c0.2-2.2,0.3-4.4,0.3-6.6
					C532,259,532,257.4,531.2,257.6z"/>
				<path class="st3" d="M540.6,232.3c-0.8-2.5-2,1.6-1.9,2.5c0.3,3.1,0.6,6.1,0.7,9.2c0.1,2.6,0,5.2,0.6,7.8
					c0.2,0.7,0.7,1.3,1.1,0.4C543.8,246.6,542.4,238,540.6,232.3z"/>
				<path class="st3" d="M545.2,269.2c-0.8-1.4-1.4,1.9-1.4,2.3c0.2,1.3,0.4,2.5,0.2,3.8c-0.2,1.2-0.7,2.2-1.2,3.3
					c-0.4,0.9-1.3,6.8,1.5,4.6c1.6-1.2,2-5.2,2.1-7C546.6,273.9,546.4,271.2,545.2,269.2z"/>
				<path class="st3" d="M556.5,233c-0.1,0-0.1,0.3,0,0.3C556.6,233.3,556.6,233,556.5,233z"/>
				<path class="st3" d="M544.9,255c-0.1,0-0.1,0.3,0,0.3C545,255.3,545,255,544.9,255z"/>
				<path class="st3" d="M543.9,239.3c-0.1,0-0.1,0.3,0,0.3C544,239.6,544,239.3,543.9,239.3z"/>
				<path class="st3" d="M542.8,239.3c-0.1,0-0.1,0.3,0,0.3C542.9,239.6,542.9,239.3,542.8,239.3z"/>
				<path class="st3" d="M542.8,241.4c-0.1,0-0.1,0.3,0,0.3C542.9,241.7,542.9,241.4,542.8,241.4z"/>
				<path class="st3" d="M494,681.2c-0.7-1.8-1.4,1.2-1.4,1.8c0.1,1.7,0.2,3.4,0.5,5.1c0.2,1,0.4,2.7,1.3,3.3
					c0.5,0.4,0.8-0.9,0.9-1.1C495.9,687.3,495.1,683.9,494,681.2z"/>
				<path class="st3" d="M510.5,691.5c-0.2-0.8-0.7-2-1.6-1.1c-0.8,0.8-0.8,2.9-0.6,4c0.2,1.1,0.5,2.3,0.8,3.4
					c0.2,0.7,0.4,1.7,1.1,2.1c0.6,0.3,0.9-0.8,0.9-1.2C511.5,696.3,510.9,693.9,510.5,691.5z"/>
				<path class="st3" d="M500.7,708c-0.9-2.5-2,2-1.8,3c0.6,2.3,1.3,4.6,2.1,6.9c0.6,1.9,1.2,4.2,2.4,5.8c0.7,0.9,1-1.3,1-1.7
					C504,717.3,502.4,712.4,500.7,708z"/>
				<path class="st3" d="M601.3,691.1c-0.2-1.5-1.3-0.7-1.4,0.4c-0.2,1.5-0.3,3-0.6,4.5c-0.4,1.6-1,3.1-1.4,4.7
					c-0.1,0.3-0.1,2.7,0.6,2.1C601.4,700.3,601.8,694.5,601.3,691.1z"/>
				<path class="st3" d="M607.6,709.3c-0.3-2.7-1.8-0.8-1.7,1c0.7,6.3-0.4,12-1.3,18.2c-0.1,0.3,0.2,2,0.7,1
					C608.4,723.5,608.3,715.8,607.6,709.3z"/>
				<path class="st3" d="M667.8,710.7c-0.1,0-0.1,0.3,0,0.3C667.8,711,667.9,710.7,667.8,710.7z"/>
				<path class="st3" d="M665.7,707c-0.1-0.6-0.2-2.1-1.1-1.9c-0.9,0.1-1,2-1,2.5c-0.2,2.8-0.3,5.7,0,8.5c0.1,0.5,0.2,2,1,2
					c0.8,0,1.1-1.4,1.2-1.9C666,713.2,665.9,710.1,665.7,707z"/>
				<path class="st3" d="M676.2,715.9c-0.1,0-0.1,0.3,0,0.3C676.2,716.2,676.3,715.9,676.2,715.9z"/>
				<path class="st3" d="M681.4,715.9c-0.1,0-0.1,0.3,0,0.3C681.5,716.2,681.5,715.9,681.4,715.9z"/>
				<path class="st3" d="M688.8,703.3c-0.1,0-0.1,0.3,0,0.3C688.8,703.6,688.8,703.3,688.8,703.3z"/>
				<path class="st3" d="M699.3,666.6c-0.1,0-0.1,0.3,0,0.3C699.3,666.9,699.3,666.6,699.3,666.6z"/>
				<path class="st3" d="M683.7,712.2c-0.7-0.2-0.9,0.8-1,1.3c-0.4,2.3-0.7,4.5-0.9,6.8c-0.1,0.8,0.6,2,1,0.7c0.5-2.1,1-4.3,1.3-6.5
					C684.2,714,684.3,712.4,683.7,712.2z"/>
				<path class="st3" d="M703.9,666.9c-1.5-0.7-2.1,1.9-2.2,2.8c-0.5,3.4-1,6.8-1.4,10.2c-0.3,2.3-0.9,5.6,0.4,7.6
					c0.1,0.2,0.3,0.3,0.5,0.3c0,0,0.1,0,0.1,0c0.8-0.1,1.1-1,1.3-1.6c1.5-4.5,1.7-9.5,2.3-14.2C705,670.8,705.3,667.6,703.9,666.9z"
					/>
				<path class="st3" d="M694.4,655.4c-0.2-1.1-1.1-2.8-2.2-1.5c-1.1,1.3-1.1,3.8-0.8,5.4c0.3,2-0.3,4-0.4,5.9
					c-0.1,0.8,0.4,4.1,1.8,2.7c1.3-1.3,1.7-3.7,1.9-5.4C694.9,660,694.8,657.7,694.4,655.4z"/>
				<path class="st3" d="M352.7,710.3c-0.5-0.5-0.5,1-0.4,1.2c1.3,3.6,2.6,7.3,3.8,10.9c0.8,2.6,1.1,6.4,2.9,8.6
					c0.7,0.8,1-0.9,1.1-1.3C360.4,723.1,357,715.2,352.7,710.3z"/>
				<path class="st3" d="M361.6,750.3c-1.5-2.4-3.4-4.6-5.1-6.8c-1.1-1.4-2,2.9-1.1,3.9c1.8,2,3.4,4.3,5.5,6
					C361.9,754.2,361.9,750.8,361.6,750.3z"/>
				<path class="st3" d="M377.6,759.5c-1.1-4.7-4.1-9.4-7.9-12.3c-0.9-0.7-0.9,2.5-0.6,2.9c1.3,2.2,2.7,4.4,4.2,6.5
					c1.1,1.6,2.1,3.5,3.8,4.4C377.7,761.3,377.7,759.8,377.6,759.5z"/>
				<path class="st3" d="M393,779.4c-0.9-2.2-2.9-3.5-4.7-5c-1.9-1.6-3.7-3.3-5.4-5.1c-1.5-1.6-2.4,3.6-1.4,4.8
					c1.7,1.9,3.4,3.6,5.4,5.2c1.3,1.1,4,3.4,5.7,2.3C393.2,781.2,393.2,779.9,393,779.4z"/>
				<path class="st3" d="M396.7,763.1c-1.1-2.8-3.1-5-4.7-7.5c-1.7-2.6-3.2-5.3-4.3-8.2c-0.7-1.9-1.5,1.7-1.2,2.7
					c1.1,3.2,2.3,6.4,4,9.3c1.2,2.1,3.1,5.5,5.7,5.9C396.9,765.3,396.8,763.4,396.7,763.1z"/>
				<path class="st3" d="M667.5,736.4c-2.5,4.7-4.5,11-4.8,16.3c0,0.1,0.2,2.2,0.8,1.6c1.6-1.5,2.3-4.1,3-6.2c1-3,2-6.1,2.7-9.2
					C669.4,738.1,668.7,734.1,667.5,736.4z"/>
				<path class="st3" d="M519.4,727.5c-0.1-2.4,0-5.1-0.9-7.4c-0.5-1.3-1.2,0.1-1.3,0.8c-0.5,2.6-0.2,5.4,0,8c0.1,2.3,0.2,4.9,1,7.1
					c0.4,1,0.9-0.1,1-0.6C519.8,732.8,519.6,730.1,519.4,727.5z"/>
				<path class="st3" d="M510.3,741.1c-0.1,0-0.1,0.3,0,0.3C510.4,741.4,510.4,741.1,510.3,741.1z"/>
				<path class="st3" d="M592,722.6c-1,4.7-2.9,10-2.5,14.9c0,0.4,0.3,1.7,0.9,1c1.3-1.6,1.5-4,1.9-5.9c0.6-2.8,1.2-5.6,1.8-8.4
					C594.6,721.8,592.7,719,592,722.6z"/>
				<path class="st3" d="M604.8,750.6c-0.1,0-0.1,0.3,0,0.3C604.8,750.9,604.9,750.6,604.8,750.6z"/>
				<path class="st3" d="M451.4,651.4c-0.3-0.8-0.7-0.8-1.3-0.2c-0.6,0.6-0.5,2.2-0.4,3c0.7,3.4,0.4,6.8,1,10.3
					c0.1,0.3,0.5,1.3,0.9,0.6C454,661.3,452.9,655.2,451.4,651.4z"/>
				<path class="st3" d="M464.1,683.4c-0.1,0-0.1,0.3,0,0.3C464.2,683.7,464.2,683.4,464.1,683.4z"/>
				<path class="st3" d="M465.6,695.8c-0.6-5.6-2.1-11-2.8-16.6c-0.3-2.5-1.9-0.2-1.9,1.1c0.1,5.1,0.2,12.8,3.8,16.9
					C465.4,698.1,465.6,696.2,465.6,695.8z"/>
				<path class="st3" d="M452.1,685.2c-0.3-0.7-0.7-0.7-1.2-0.2c-0.6,0.6-0.4,2-0.3,2.8c0.3,2.5,1,5,1.6,7.4
					c0.4,1.4,0.6,3.7,1.9,4.6c0.6,0.4,0.9-1.2,0.9-1.5C455.3,694.2,453.6,689.1,452.1,685.2z"/>
				<path class="st3" d="M463.9,646.7c-0.1-0.7-0.6-1.5-1.2-0.9c-0.7,0.6-0.6,2.3-0.5,3.1c0.4,2,0.6,4.4,1.7,6.2
					c0.4,0.7,0.8-0.8,0.8-1C464.8,651.6,464.3,649.2,463.9,646.7z"/>
				<path class="st3" d="M342.4,645.6c-0.8-0.6-1.2-0.1-1.4,0.8c-1.5,5.6-3.5,11.3-3.8,17c0,0.2,0.3,2,0.8,1.2
					c2.7-4.5,3.4-10.6,4.7-15.7C342.8,648.2,343.1,646.2,342.4,645.6z"/>
				<path class="st3" d="M351.6,657.8c0-0.5-0.2-1.9-1-1.6c-0.7,0.3-0.8,2.1-0.7,2.6c0.3,2.6-0.2,5-0.6,7.5c0,0.2,0.1,1.9,0.6,1.2
					C351.8,665,351.9,661,351.6,657.8z"/>
				<path class="st3" d="M340.4,681.1c-0.8,2.8-1.3,5.6-1.4,8.5c-0.1,2.2-0.2,4.9,0.9,6.9c0.3,0.6,0.9-0.2,0.9-0.5
					c0.9-4.1,0.7-8.5,1.5-12.7C342.6,681.7,341.3,678,340.4,681.1z"/>
			</g>
			<path class="st4" d="M385.5,798.7c-24.4-9.1-90.1-7.2-86.8-46.7c0.1-1.4-0.9-2.3-1.3-0.5c-3.9,19.1,11.8,32.5,28.2,38.4
				c23.5,8.4,50.1,7,71.8,20.3c9.8,6,19.2,15.3,21.5,27.1c4.3,22.2-19.3,19.2-33.5,18.8c-25.5-0.8-51.7-3.7-74.7-15.6
				c-26.7-13.8-46.9-40.4-43.1-71.6c0.1-0.5-0.3-1.3-0.5-0.4c-3.9,22,4.9,44.4,20.4,60.1c19.5,19.8,47.4,28.4,74.4,31.5
				c7.2,0.8,14.5,1.2,21.8,1.5c7.7,0.3,16.1,1.2,23.8-0.1c9.4-1.6,13.8-9.1,14.3-18.1C422.9,821.9,404.1,805.7,385.5,798.7z"/>
		</g>
	</g>
	<g>
		<path class="st6" d="M982.8,553.6c0-0.3,0.1-0.7,0.1-1c0.6-2,1.3-3.9,1.7-5.9c1.2-5.3,2.6-10.6,3.5-16c0.7-4.1,0.1-8.2-2-11.9
			c-2.4-4.3-6.2-5.8-10.7-3.8c-2.5,1.1-4.8,2.6-6.9,4.3c-4,3.2-6.9,7.3-9.4,11.7c-0.4,0.7-1,1.4-1.9,2.6c-0.2-1.6-0.2-2.5-0.3-3.4
			c-0.7-6.8-1.1-13.6-2.2-20.3c-1.1-6.9-3.5-13.5-7.7-19.2c-4.4-6-10.9-6.9-16.8-2.6c-1.5,1.1-3.1,2.4-4.1,4
			c-2.3,3.5-4.6,7.1-6.3,10.9c-3.3,7.6-4.3,15.7-5,23.9c-0.8,9.4,0.2,18.8,1,28.2c0.1,1,0,2,0,3.8c-1.3-1.1-1.9-1.5-2.5-2
			c-1.1-1-2-2.2-3.3-3c-3-2-5.9-1.2-7.4,2.1c-0.6,1.3-1,2.9-1,4.3c0,2.6,0.2,5.2,0.5,7.7c0.3,2.3,0.8,4.5,1.4,7.5
			c-2.6-2.1-4.6-3.7-6.6-5.2c-1.4-1-3-1.4-4.6-0.6c-1.8,0.9-2.4,2.6-2.2,4.5c0.3,2.1,0.7,4.3,1.4,6.4c3.1,8.9,8.3,16.5,14.8,23.3
			c1.1,1.1,2.2,1.7,3.9,1.7c6.9-0.2,13.9-0.2,20.8-0.3c5.2-0.1,10.4-0.3,15.5-0.5c11.7-0.6,23.4-1.2,35.1-1.8
			c3.3-0.2,4.2-0.9,5.4-3.9c1.6-4.3,3.3-8.7,5.2-12.9c3-6.6,5.6-13.3,7.1-20.4c0.7-3.6,1-7.3-0.4-10.9c-1.4-3.8-4.5-5.5-8.5-4.4
			c-2.3,0.7-4.5,1.9-6.8,2.8C983.4,553.4,983.1,553.5,982.8,553.6z M915.5,559.2c0.1-0.1,0.2-0.3,0.3-0.4c0.1,0.1,0.2,0.2,0.2,0.3
			c0,0.1-0.2,0.2-0.3,0.3C915.7,559.3,915.6,559.2,915.5,559.2z"/>
		<path class="st4" d="M908.9,664.9c0.5,5.3,0.9,10.7,1.7,16c0.9,6.4,2.2,12.7,3.2,19c0.9,5.3,1.6,10.6,2.5,15.8
			c0.5,3.1,1.5,3.9,4.2,3.9c16.6,0,33.3-0.1,49.9-0.2c5.3,0,10.6-0.3,15.9-0.5c3.1-0.1,4.9-1.7,5.2-4.7c0.6-6.6,1.1-13.3,1.6-20
			c0.6-8.7,1.2-17.4,1.8-26.1c0.3-3.5,0.6-7,1-10.7c1.8-0.4,3.5-0.8,5.2-1c1.9-0.2,3-1.2,3.5-2.9c0.4-1.4,0.6-2.9,0.7-4.4
			c0.2-2.4,0.1-4.9,0.3-7.4c1-9.2,2-18.4,3-27.6c0.4-3.4,0.8-6.8,0.8-10.2c0-3.9-2.3-5.8-6-5.5c-7.2,0.5-14.4,1.1-21.6,1.6
			c-4.5,0.3-9,0.6-13.5,0.9c-14.8,1-29.6,2-44.4,3.1c-11.3,0.8-22.5,1.7-33.8,2.5c-1.9,0.1-2.7,1-2.6,2.8c0.2,3.5,0.3,7,0.9,10.4
			c1.1,6.8,2.5,13.7,3.9,20.5c1.2,5.9,2.5,11.8,4.1,17.6c1,3.7,1.4,3.8,5.1,3.8c2.2,0,4.3,0,6.9,0
			C908.7,663.1,908.8,664,908.9,664.9z M998.2,649.8c-3.2,0.4-6.2,0.8-9.2,1c-6.4,0.4-12.8,0.6-19.2,1c-10.6,0.7-21.2,1.5-31.8,2.2
			c-6,0.4-12,0.6-18,1c-4.5,0.3-9,0.6-13.5,0.8c-1.2,0.1-2.4,0-3.7,0c-3.3-15-6.6-29.8-9.9-44.9c3-0.3,5.5-0.8,8.1-0.9
			c7.5-0.4,15-0.5,22.5-1c12.5-0.7,25-1.5,37.5-2.3c4.4-0.3,8.7-0.6,13.1-0.8c8.9-0.4,17.7-0.8,26.6-1.1c0.7,0,1.3,0.1,2.5,0.2
			C1001.4,620.3,1000.7,635.1,998.2,649.8z M914.3,661.6c1.8-0.3,3.3-0.7,4.9-0.8c13.5-0.7,26.9-1.3,40.4-1.9
			c8.6-0.4,17.1-1,25.7-1.5c1.3-0.1,2.7,0,4.5,0c-0.3,3.9-0.6,7.5-1,11.1c-0.6,6.4-1.4,12.7-2,19.1c-0.7,7-1.2,14.1-1.9,21.2
			c-0.2,2.7-0.5,2.9-3.8,3c-11.3,0.2-22.6,0.4-33.9,0.7c-6,0.1-12,0.4-18,0.6c-1.8,0.1-3.5,0-5.7,0
			C920.5,695.8,917.4,678.9,914.3,661.6z"/>
	</g>
	<g>
		<polygon class="st0" points="300.7,737.8 293.4,685.7 289.4,630 279.6,577.9 281.1,510.9 283.6,485.4 329.1,474.8 503.6,483.2 
			584.5,475.9 640.2,468.3 723.6,472.3 757.2,478.1 776.1,532.7 769.9,661 764.4,722.2 767.7,739.3 293.1,760.4 		"/>
		<g>
			<g>
				<path class="st3" d="M292.7,502.7l0-1.3l0.3,2c0.2,1.7,0.5,3.4,0.7,5c0.4,3.4,0.9,6.8,1.3,10.2c0.8,6.9,1.6,13.8,2.3,20.7
					c0.2-7.6,0.3-15.6,0.2-23.6c-0.1-4-0.2-8-0.5-12l-0.1-1.5c0-0.3,0-0.2,0-0.3l0-0.1l0.1-0.3c0.1-0.2,0.1-0.4,0.2-0.6
					c0.1-0.3-0.1-0.7-0.1-1.2c0.1-0.4,0.2-0.7,0.4-1.3c0.2-0.6,0.5-1.4,1.1-2.4l0.3-0.4c0.1-0.1,0.5-0.3,0.9-0.5l2.1-1.1
					c1.4-0.7,2.8-1.5,4.1-2.3c1.5,2.9,9.1,4.6,16.5,5.7c7.4,1,14.7,1.3,15,0.6c5.9-1.2,12.1-2.1,18.3-2.9c-4.3,0.4-8.5,0.9-12.7,1.5
					c4.2-0.6,8.5-1.1,12.7-1.5c39.3-4.8,81.9-2.8,126.1-0.5c24.5,1.1,91,2.4,116.1,4.1c3.6,0.2,7.3,0.4,10.9,0.6
					c-6.1-0.5-6.1-0.5-12.2-1.1c15.3-1.6,29.2-3.3,42.6-4.3c-2.4-0.9-2.8-1.7-8.4-2.9l6.9,0.6c6.2-2.5,20.6-2.4,27.4-3.5
					c-1.5,1.3,3.9,1.6,8.6,1.8l-1.9-0.9c17.9,0.5,38.6-0.6,54.5-0.4c2.2,0,3.9,0.5,4.9,0.9c5.2-0.3,10.2-0.8,13.5-0.6
					c-0.4,0.8,0.9,1.4,1.7,2c0.8,0.6,1.2,1-0.3,1.1c2.4-0.4,4.6,1.3,5.6,3.4c0.3,0.5,0.5,1.1,0.7,1.7c0.2,0.4,0.4,1.4,0.7,2.4
					c0.5,2.2,0.9,4.4,1.4,6.6c0,4.1-0.4,9.3-0.6,14.2c-0.2,4.9-0.4,9.9-0.6,14.9c-0.4,10-0.7,20.1-0.9,30.3
					c-0.5,20.3-0.6,40.8-0.3,61l0.7-0.9c0.3,14.2,3.1,26.8,0.9,43.9c1.6,12.4,1.8,29.9,5.2,35c-0.3,14.2,1.2,19.9,1.3,33.8
					c2-3.5,1.4,13.6,3.2,6.9c3.1-9,1-9.7,3.5-17.3l-0.6,0.2c4.9-36.2,8.7-72.6,11.7-109.4c-0.1-24.7,2.8-51.3,3.8-77
					c0.2-6.9,0.4-13.9,0.7-21c0.1-3.6,0.2-7.3,0.2-10.9c0-4-0.1-8.3-0.8-12.9c-0.1-1.1-0.4-2.3-0.6-3.5c-0.2-1.1-0.6-2.8-1-4.1
					c-0.8-2.8-1.9-5.5-3.2-8c-2.6-5.1-6.5-9.3-11-12.4c-4.5-3.1-9.6-4.9-14.7-5.7c-1.2-0.2-2.6-0.4-3.7-0.5c-1-0.1-2-0.1-3-0.2
					c-1.9-0.1-3.7,0-5.4,0c-3.2,0.2-5.5,0-7.8-0.4c-2.3-0.4-4.5-1-7-1.4c-21.8,0.9-49.5,0.3-74.1,1.3c0.5,0,0.9,0,1.2,0.1
					c-13.1,0.3-22.8-1.5-35.6-1.2c0.1,0.5-1.9,0.6-2.9,0.8c-2.2-2.4-75.1,5.2-79.5,3.8c-1.3,0.1-2.7,0.2-4.1,0.3
					c-26.9-1.1-54.8-5.8-77.8-5.3c-5,1.2-10.7,2.2-14.9,3.5c-4.1-1-4.9,1-9.8,0.7c-12.5-4.9-19.8-2.8-13.4-1.1
					c-10.3,0.7-20.6,0.3-29.7,0.4c-4.2,0.4-8.4,0.8-12.7,1.2c-3.6,0.4-5.7-0.3-7.5-1.5c-9.3,0.7-6.6-0.5-16.3-1
					c-2.3-1.7-24.6,2.9-27.5,2.6l1.6-0.3c-5.8,0-10.6-0.6-15.6-1.2c-2.5-0.3-4.9-0.5-7.5-0.6c-0.6,0-1.3,0-2,0c-0.7,0-1.1,0-2.4,0.1
					c-2.2,0.2-4.5,0.4-6.8,0.6c-3.2,0.5-6.6,0.7-9.7,1.5c-1.5,0.4-3.2,0.6-4.7,1.1l-4,1.7c-1.4,0.5-2.5,1.3-3.7,2.1
					c-1.1,0.8-2.2,1.7-3.2,2.9c-2,2.4-3.1,5.1-3.8,7.6c-0.6,2.6-1,5.6-0.9,8.9c0.2,3.3,0.9,6.8,1.3,10.2c0.8,5,1.5,10,2.3,15
					c2.4,15.5,4.9,30.7,6.7,44.8c1.8,0-1.3-6.1,1-6.8c2.2,16.6,2.5,33.5,4.7,50.3c0,3.1-0.4,6.9-0.7,8.3c0.1,5.4,1.3,3,1.7,6.9
					l-1.5,0.7c2.1,5.2-0.7,8.2,0.6,13.2c0.7,0.2,1,2.1,1.1,3.9c-1.7,0.2,0.7,5.7-0.9,5.6l0.1,0c0.1,1.1,0.3,1.9,0.1,3.4
					c0.4,1,2.2,6.6,4.2,12.3c1.9,5.7,4,11.5,4.5,12.7l-0.1,1.1c0.5,3.2,2,4.4,2,2.5l0.5,4l-0.2-0.4c0.2,1.3,0.3,2.6,0.5,4
					c0,0.7-0.7,1.7-1.6,0.7c1,2.1,1.7,4.6,1.9,6.9c-0.1-6.4,0.1-14.4,1-21c0.9,2.6,0.7,7.5,1.3,10.3c-0.6,3.6-0.3,10.8,0.1,16.5
					c0.4,1.2,2.4,1.6,2.2,4.5c-1,1.6,0.7,3,0.3,5.5c-1.3-2.4-1.5-5-2.1-7.6c-1.4,0.8,0.4,6.6,0.5,8.8c0.7,0.8,1.4,6,2.7,9
					c-1.8-1-0.2,2.8-0.5,4.8c0.4,2.2,1.4,3.3,1.6,2.3c1.7,0.3-1.3-8.6,1.1-6.1c-0.6,1,0.8,5,1.5,7.2c0.9-0.2,0.2-1.7,1.4-0.5
					c0.5,2.5,2.3,4.8,1.8,6.4c-0.4-0.4-0.5-1.4-0.7-2.1c0.4,1.6-2.2-2.3-4.8-6.1c-2.5-3.9-4.8-7.7-4-5.7c0.3-0.7,2.7,3.6,5.2,7.7
					c2.5,4.1,4.8,8,4.5,6.9c-0.1-2,1.9,0.9,1.7-1.2l-1.7-1.9c-0.5-2.8,0.7-4.4,1.6-3.6c0.6,2.3-1.8-0.5-4.1-3.5
					c-2.2-3-4.4-6.1-3.4-4.3l0-1.7c1,1.5,2.7,5.9,2.3,7.8c0.8-0.2,1.8,1.9,2.6,3.7l0,0.7c1,1.8,1.6,4.5,2.3,2.9
					c-3.4-11.1,10.7,4.7,8-6.1c-0.6,5-2.4-0.9-3.9-5.6c0.5-0.6,0.9-3,0.4-6.5c-0.9-2.9-1.2-1.6-1.8-2c0-1.8-0.4-5,0.7-4.8
					c-1.7-2-0.2-3.8-1.2-6.5c-1.1-2.3-0.5,0.3-1.4-1.3c-0.7-3.7-1.6-8.9-1.9-11.9c0.7-1.3,1.8-5.1,3.7-2.8c0.8,5.6-2.8-1.7-1.4,4
					c1.7-2.9,1.6,5,3.4,5.7c0.6-2-0.2-5.7-1-8.8l-0.2,0.7c-0.8-2.7-2.1-8.1-1.4-11.3c0.9,0.6,1.2-0.8,1.7,1.2
					c-0.1-1.3-0.3-2.5-0.4-3.8c-0.3-0.4-0.6-0.9-0.6,0.2c-0.8-1.7-0.7-3.5-0.5-5c0.7-0.4-5.5-20-4.9-19.4c-0.3-2.8,0.9-3.6-0.2-6.2
					c-0.7-0.2,5.3,26.2,4.8,22.5c0.5-2.4-7.1-30.9-5.9-32.8c-0.3-2-0.8-4.5-1.5-3.9c0-3.5,1.7,0.8,2.1-1.7c-0.1,0-0.4,0.3-0.5-0.5
					l0.7-2.5c-2-5.2-1.6-13.3-4.1-18.6c1.1,1.5,2.9,3.1,4.3,6.6l-0.3,0.7c0.3,0.5,1.1,3.4,1.9,3.2c0-3.5-0.6-6.4-1.9-9.9
					c0.1-0.7,0.2-1.5,0.4-2.1c-0.1,0-0.2,0.1-0.3,0.1c0.3-1.3,0.4-1.1,0.8-0.8c0.1,0,0.1,0.1,0.2,0.2c2.1-2.5-3.5-13.2-3.2-19.6
					c-0.6-1.8-0.4-0.1-1.2-2.3c0-6.5,0.1-11-0.4-17.8c-1.3-2-1.8-2.1-2.5,0.7l-0.4-5.1c3.4,4.2,1.2-9.8,4.7-5.2
					c0.4-1.6,0.1-4.6-0.8-7.4c-0.7-0.2-1.9-0.5-2.4-4c0.2-5.1,0-3.9,0.3-8.1c0.7-1.1,1.3,0.3,2,0.1c-2.1-6.1,1.1-5.8,0.1-11.7
					c-0.8-3.7-2-11-3.6-11c-0.3-2.5-0.2-3.8,0.1-4.5C291.5,502.7,292.1,502.8,292.7,502.7z"/>
			</g>
			<g>
				<path class="st3" d="M49.9,766.1c3.2,1.6,8.8,2.1,14.1,2.7C60,767.2,55.6,766.4,49.9,766.1z"/>
				<path class="st3" d="M64.1,768.9C64.1,768.9,64.1,768.9,64.1,768.9c0,0,0,0-0.1,0C64,768.8,64,768.8,64.1,768.9z"/>
				<path class="st3" d="M1090.9,706.2c-1.3,0.1-2.8,0.1-4.3,0.2C1088,706.4,1089.5,706.4,1090.9,706.2z"/>
				<path class="st3" d="M321.5,782.9l0.8-2.3c12.6,0.1,3.6,2.7,15.3,2.3c4.6-3.2,19.4,0.6,23.4-1.2c-0.1,0.3,5.6,0.4,5.2,1.4
					c1.8-1.8,5.9-0.4,9.5-0.8c1.3-0.5-1-0.5-1.9-1.1l8.2-0.6c3.2,0.6,4,1.6,0.5,1.8c10.8,0.4,42,1.1,73.4,1.3
					c31.4,0.3,63,0.1,74.6-0.4c-3-1.3-10.1-0.3-12.9-2.4c6.1-1.2,9,0.3,11.7-1c2.4,3.1,13.5,0.6,18.1,3.7l1.7-1.8l3.1,1
					c26.9-2.2,6.1-1,30-0.9c13.8-0.5,20.3-3,28-2.3c-1.1,0-4.2-1-0.6-1.5c0.6,1.5,9.5-1.3,11.3,0.3c3.5-0.3,14.8-0.3,11-2.3
					c1.9,1,12.1,1.3,6.1,2.3c3.4,0,6.7,0.3,9.2-0.3l-4.4-0.5c11.5-0.5,17.8,1,25.3-1.1l-4.3-0.8c6.9-0.3,12.6-0.5,15.4,1.5l-7.1,0.8
					c11.4-0.3,18.3-0.5,27.8-1.8l-3.4,0c12.1-2.3,75.5-5.3,86.6-8.2l-5.2-1.5l9.6-1.6c-1.1,0-4.5,5.4-5.5,4.9
					c20.6-0.6,127.6-4,146.6-3.2c7.7,0.7,1.4,2.6,1.3,2.8c9.3-0.8,4-1.8,11.9-1.8c2.2,0.3-0.4,1.3-1.6,1.5c3.5-0.3,6.7,0.2,7-0.5
					c-4.4-0.5-2.6-2.6-4.4-3.8l10.2,0l-0.4,1.3c2.3,0,5.7-3.6,15.7-3.1c16.9,0.2,35.3-0.6,52.3-0.6c-0.2,0.8-3.8,1.3-7.4,1.8
					c2.3,0,5.8-0.3,7.9,0.2c-4.1-1.3,7.1-1,3.9-1.5c12.4-3.4,28.6-0.8,39.5-3.2c0.9-2.8,22.6-48.6,22.5-51.9c3.4,0,6.8,0,7.9,0.2
					c-0.9-0.8-7.6-1-11.2-0.5l-0.6,1.8c-8.2,0.8-1.9-1-10-0.7c-0.5-1.5,6.9-1.9,13.4-2.2c-5.8-0.1-11.7-1-14,0.6
					c-5.5-0.5,0.6-1.8-6.1-2.3c-4.7,0.5-10.9,2.1-16.3,1.3l0.1-0.3c-13.2-1.2-20.1,2.6-32.1,1.4l1.3-0.5c-4.3-0.8-12.6,0.5-20.3-0.2
					c2.2,0.3,4.1,1.3-0.5,1.5c-8.8-0.7-14.8,0.3-21.3-0.7l-6.2,1.6c-30.7,0.3-151.9,4.8-182.7,5.6l1.2-0.3
					c-47,1.7-143.4,3.5-191.8,6.2c-7.5-1.3-17.9-0.8-25.7-1.1c4.4,0.5,2.9,1.5-0.5,1.5c-23.8,0.2-1.6,1-25.7,1.9
					c-13.9,0.8-47.4,1.2-80.4,1c-33.1-0.1-65.7-0.9-78-1.6c-13.2,2-29.7,0.4-42.6,1.5l1.3-0.5c-6.9,0.3-30.1-0.2-53.5-1
					c-23.4-0.7-47-1.7-55.1-1.5l2.2,0.4c-14.1,0.9-12.1-1.3-23.2-2.4c1.4,2.4-10.7,3.3-15.3,3.3l0.2-0.5c-6.9,0.1-22.7,1.6-34.2,1.4
					l0.5-1.3c-9.6,0.9-27.5-0.5-34.4-0.7c-15.6-1.5-39.7-4.9-60.7-4.7l-13.3-4.5l-2,0.2c0,0-6.2,10.6-9.1,22.5
					c-2.9,12-2.4,25.3,11.3,30.9l-0.5,1.2l5.5,0.2c6.6,1.1,9.8-0.2,9.2,1l-9.1-0.8c6.6,0.8,1.9,1.2-0.7,1.7c2.8,0.3,5.5,0.6,7.7,1.2
					c1.3-0.4-0.9-0.6-2-0.9c3.6-0.2,8.7-1.1,13-0.2c6.8,0.6,0.3,2.1,8.3,2.7c42,3.5,82.8,6.9,125.3,8c1,0.6-0.2,0.5-1.4,0.7
					c12.8-0.1,24.2,0.4,35.9,0.1c3.2,0.7,4.1,1.5,5,2c-0.9-0.5,15.2-0.4,31.6-0.2c8.2,0.1,16.6,0.3,22.9,0.4
					C316.9,782.7,321.2,782.8,321.5,782.9z"/>
			</g>
			<g>
				<path class="st3" d="M531.7,617.6c2.3-0.8,4.2,2.5,3.2,4.6c-1,2.2-3.6,3.1-6,3.5c-4.6,0.8-9.3,0.3-13.7-1.2
					c-3.3-1.2-6.9-3.8-6.5-7.3c0.4-4.1,5.6-5.6,9.7-6.1c2.4-0.3,4.8-0.6,7.2-0.9c4-0.5,8.3-0.9,11.8,1.1c3.5,2,5,7.6,1.9,10"/>
			</g>
		</g>
	</g>
</g>
</svg>
